<?xml version="1.0" encoding="UTF-8"?><svg id="Ebene_3" xmlns="http://www.w3.org/2000/svg" viewBox="0 0 1080 600.48"><defs><style>.cls-1{letter-spacing:0em;}.cls-2{stroke-width:.28px;}.cls-2,.cls-3,.cls-4,.cls-5,.cls-6,.cls-7,.cls-8,.cls-9,.cls-10,.cls-11,.cls-12{fill:none;stroke-miterlimit:10;}.cls-2,.cls-3,.cls-4,.cls-5,.cls-6,.cls-7,.cls-8,.cls-12{stroke:#F0F6FC;}.cls-3{stroke-width:.28px;}.cls-4{stroke-width:3.04px;}.cls-5{stroke-width:.85px;}.cls-6{stroke-width:.85px;}.cls-13{letter-spacing:-.02em;}.cls-7{stroke-width:2.03px;}.cls-8{stroke-width:.59px;}.cls-14{fill:#F0F6FC;font-family:Roboto-Regular, Roboto;font-size:24px;}.cls-15{letter-spacing:-.01em;}.cls-9{stroke:#be1622;}.cls-9,.cls-10,.cls-11{stroke-width:2.83px;}.cls-10{stroke:#009640;}.cls-11{stroke:#312783;}.cls-12{stroke-width:.22px;}.cls-16{letter-spacing:0em;}</style></defs><rect class="cls-4" x="155.52" y="40.32" width="806.4" height="462.24"/><line class="cls-6" x1="846.72" y1="502.56" x2="846.72" y2="40.32"/><line class="cls-6" x1="155.52" y1="270.72" x2="961.92" y2="270.72"/><line class="cls-12" x1="155.52" y1="385.92" x2="210.24" y2="385.92"/><line class="cls-3" x1="155.52" y1="316.32" x2="961.92" y2="316.32"/><line class="cls-2" x1="155.52" y1="351.36" x2="210.24" y2="351.36"/><line class="cls-3" x1="155.52" y1="330.72" x2="961.92" y2="330.72"/><line class="cls-3" x1="155.52" y1="305.28" x2="961.92" y2="305.28"/><line class="cls-3" x1="155.52" y1="276" x2="961.92" y2="276"/><line class="cls-3" x1="155.52" y1="296.16" x2="961.92" y2="296.16"/><line class="cls-3" x1="155.52" y1="288.48" x2="961.92" y2="288.48"/><line class="cls-3" x1="155.52" y1="281.76" x2="961.92" y2="281.76"/><line class="cls-6" x1="155.52" y1="155.52" x2="961.92" y2="155.52"/><line class="cls-6" x1="155.52" y1="155.52" x2="961.92" y2="155.52"/><line class="cls-6" x1="155.52" y1="270.72" x2="961.92" y2="270.72"/><line class="cls-3" x1="155.52" y1="201.12" x2="961.92" y2="201.12"/><line class="cls-3" x1="155.52" y1="236.16" x2="961.92" y2="236.16"/><line class="cls-3" x1="155.52" y1="215.52" x2="961.92" y2="215.52"/><line class="cls-3" x1="155.52" y1="190.08" x2="961.92" y2="190.08"/><line class="cls-3" x1="155.52" y1="160.8" x2="961.92" y2="160.8"/><line class="cls-3" x1="155.52" y1="180.96" x2="961.92" y2="180.96"/><line class="cls-3" x1="155.52" y1="173.28" x2="961.92" y2="173.28"/><line class="cls-3" x1="155.52" y1="166.56" x2="961.92" y2="166.56"/><line class="cls-6" x1="155.52" y1="40.32" x2="961.92" y2="40.32"/><line class="cls-6" x1="155.52" y1="155.52" x2="961.92" y2="155.52"/><line class="cls-3" x1="155.52" y1="85.92" x2="961.92" y2="85.92"/><line class="cls-3" x1="155.52" y1="120.96" x2="961.92" y2="120.96"/><line class="cls-3" x1="155.52" y1="100.32" x2="961.92" y2="100.32"/><line class="cls-3" x1="155.52" y1="74.88" x2="961.92" y2="74.88"/><line class="cls-3" x1="155.52" y1="45.6" x2="961.92" y2="45.6"/><line class="cls-3" x1="155.52" y1="65.76" x2="961.92" y2="65.76"/><line class="cls-3" x1="155.52" y1="58.08" x2="961.92" y2="58.08"/><line class="cls-3" x1="155.52" y1="51.36" x2="961.92" y2="51.36"/><line class="cls-5" x1="155.52" y1="385.92" x2="210.24" y2="385.92"/><line class="cls-6" x1="155.52" y1="501.12" x2="961.92" y2="501.12"/><line class="cls-2" x1="155.52" y1="431.52" x2="210.24" y2="431.52"/><line class="cls-3" x1="155.52" y1="466.56" x2="961.92" y2="466.56"/><line class="cls-2" x1="155.52" y1="445.92" x2="210.24" y2="445.92"/><line class="cls-2" x1="155.52" y1="420.48" x2="210.24" y2="420.48"/><line class="cls-2" x1="155.52" y1="391.2" x2="210.24" y2="391.2"/><line class="cls-2" x1="155.52" y1="411.36" x2="210.24" y2="411.36"/><line class="cls-2" x1="155.52" y1="403.68" x2="210.24" y2="403.68"/><line class="cls-2" x1="155.52" y1="396.96" x2="210.24" y2="396.96"/><line class="cls-5" x1="270.72" y1="334.08" x2="270.72" y2="40.32"/><line class="cls-5" x1="385.92" y1="334.08" x2="385.92" y2="40.32"/><line class="cls-5" x1="501.12" y1="334.08" x2="501.12" y2="40.32"/><line class="cls-6" x1="616.32" y1="502.56" x2="616.32" y2="40.32"/><line class="cls-6" x1="731.52" y1="502.56" x2="731.52" y2="40.32"/><text class="cls-14" transform="translate(149.02 529.92)"><tspan x="0" y="0">0</tspan></text><text class="cls-14" transform="translate(129.32 509.76)"><tspan x="0" y="0">1</tspan></text><text class="cls-14" transform="translate(433.44 563.04)"><tspan x="0" y="0">Supply </tspan><tspan class="cls-13" x="77.52" y="0">V</tspan><tspan x="92.25" y="0">oltage </tspan><tspan class="cls-16" x="164.78" y="0">(V</tspan><tspan x="188.72" y="0">)</tspan></text><text class="cls-14" transform="translate(86.4 411.84) rotate(-90)"><tspan x="0" y="0">Output </tspan><tspan class="cls-15" x="78.05" y="0">F</tspan><tspan class="cls-1" x="91.01" y="0">r</tspan><tspan x="98.91" y="0">equency f</tspan></text><text class="cls-14" transform="translate(94.39 209.2) rotate(-90) scale(.58)"><tspan x="0" y="0" xml:space="preserve">0  </tspan></text><text class="cls-14" transform="translate(86.4 194.42) rotate(-90)"><tspan x="0" y="0">(Hz)</tspan></text><text class="cls-14" transform="translate(114.41 393.12)"><tspan x="0" y="0">10</tspan></text><text class="cls-14" transform="translate(100.93 277.92)"><tspan x="0" y="0">100</tspan></text><text class="cls-14" transform="translate(115.72 162.72)"><tspan x="0" y="0">1k</tspan></text><text class="cls-14" transform="translate(103.68 47.52)"><tspan x="0" y="0">10k</tspan></text><text class="cls-14" transform="translate(379.42 529.92)"><tspan x="0" y="0">3</tspan></text><text class="cls-14" transform="translate(485.53 529.92)"><tspan x="0" y="0">3,5</tspan></text><text class="cls-14" transform="translate(615.12 529.92)"><tspan x="0" y="0">4</tspan></text><text class="cls-14" transform="translate(715.93 529.92)"><tspan x="0" y="0">4,5</tspan></text><text class="cls-14" transform="translate(255.13 529.92)"><tspan x="0" y="0">2,5</tspan></text><text class="cls-14" transform="translate(839.86 529.92)"><tspan x="0" y="0">5</tspan></text><rect class="cls-7" x="210.24" y="334.08" width="360" height="115.2"/><line class="cls-9" x1="228.96" y1="362.88" x2="329.76" y2="362.88"/><line class="cls-11" x1="228.96" y1="391.68" x2="329.76" y2="391.68"/><line class="cls-10" x1="228.96" y1="420.48" x2="329.76" y2="420.48"/><text class="cls-14" transform="translate(341.28 370.08)"><tspan x="0" y="0">R = 10 kΩ, C = 4.7 μF</tspan></text><text class="cls-14" transform="translate(341.28 398.88)"><tspan x="0" y="0">R = 10 kΩ, C = 1.0 μF</tspan></text><text class="cls-14" transform="translate(341.28 427.68)"><tspan x="0" y="0">R = 10 kΩ, C = 0.1 μF</tspan></text><line class="cls-9" x1="270.72" y1="69.12" x2="918.72" y2="142.56"/><line class="cls-11" x1="270.72" y1="169.92" x2="920.16" y2="256.32"/><line class="cls-10" x1="269.28" y1="241.92" x2="918.72" y2="328.32"/><text class="cls-14" transform="translate(946.09 529.92)"><tspan x="0" y="0">5,5</tspan></text><line class="cls-8" x1="570.24" y1="385.92" x2="961.92" y2="385.92"/><line class="cls-2" x1="570.24" y1="351.36" x2="961.92" y2="351.36"/><line class="cls-5" x1="570.24" y1="385.92" x2="961.92" y2="385.92"/><line class="cls-2" x1="570.24" y1="431.52" x2="961.92" y2="431.52"/><line class="cls-2" x1="570.24" y1="445.92" x2="961.92" y2="445.92"/><line class="cls-2" x1="570.24" y1="420.48" x2="961.92" y2="420.48"/><line class="cls-2" x1="570.24" y1="391.2" x2="961.92" y2="391.2"/><line class="cls-2" x1="570.24" y1="411.36" x2="961.92" y2="411.36"/><line class="cls-2" x1="570.24" y1="403.68" x2="961.92" y2="403.68"/><line class="cls-2" x1="570.24" y1="396.96" x2="961.92" y2="396.96"/><line class="cls-5" x1="270.72" y1="502.56" x2="270.72" y2="449.28"/><line class="cls-5" x1="385.92" y1="502.56" x2="385.92" y2="449.28"/><line class="cls-5" x1="501.12" y1="502.56" x2="501.12" y2="449.28"/></svg>