<?xml version="1.0" encoding="UTF-8"?><svg xmlns="http://www.w3.org/2000/svg" viewBox="0 0 1080 600.48"><defs><style>.cls-1{stroke-dasharray:0 0 0 0 9.46 6.31 9.46 6.31;}.cls-1,.cls-2,.cls-3,.cls-4,.cls-5,.cls-6,.cls-7,.cls-8,.cls-9,.cls-10,.cls-11,.cls-12{fill:none;stroke-miterlimit:10;}.cls-1,.cls-3,.cls-4,.cls-11{stroke:#f9b233;stroke-width:1.32px;}.cls-13{fill:#f9b233;}.cls-14{fill:#6a6f75;}.cls-15{fill:#f0f6fc;}.cls-16{fill:#2f333a;}.cls-2{stroke-width:.43px;}.cls-2,.cls-5,.cls-6,.cls-9,.cls-10,.cls-12{stroke:#f0f6fc;}.cls-3{stroke-dasharray:0 0 0 0 0 0 9.46 6.31 9.46 6.31 9.46 6.31;}.cls-4{stroke-dasharray:0 0 0 0 0 0 9.93 6.62 9.93 6.62 9.93 6.62;}.cls-5{stroke-dasharray:0 0 0 0 0 0 9.59 6.39 9.59 6.39 9.59 6.39;}.cls-5,.cls-9,.cls-12{stroke-width:.57px;}.cls-6{stroke-width:.71px;}.cls-7{stroke:#009fe3;stroke-width:1.45px;}.cls-8{stroke:#e30613;stroke-width:1.02px;}.cls-10{stroke-width:.55px;}.cls-12{stroke-dasharray:0 0 0 0 9.59 6.39 9.59 6.39;}</style></defs><g id="template_size"><rect x="0" y="0" width="1080" height="600.48"/></g><g id="Ebene_3"><rect class="cls-16" x="211.32" y="394.56" width="466.56" height="195.84"/><rect class="cls-14" x="228.6" y="539.62" width="432" height="43.58"/><path class="cls-7" d="m458.94,298.96c0,18.42,95.77,13.93,95.77,43.28,0,17.36-51.45,31.44-114.92,31.44-61.56,0-111.47-13.65-111.47-30.49,0-16.34,48.41-29.58,108.13-29.58,57.93,0,104.88,12.85,104.88,28.69,0,15.37-45.55,27.83-101.74,27.83s-98.68-12.09-98.68-27c0-14.46,42.86-26.19,95.72-26.19,51.28,0,92.85,11.37,92.85,25.4,0,13.61-40.32,24.64-90.07,24.64-48.25,0-87.36-10.7-87.36-23.9,0-12.8,37.94-23.18,84.74-23.18s82.2,10.07,82.2,22.49-35.7,21.81-79.74,21.81c-42.72,0-77.34-9.47-77.34-21.16,0-11.33,33.59-20.52,75.02-20.52s72.77,8.91,72.77,19.91-31.6,19.31-70.59,19.31c-37.82,0-68.47-8.39-68.47-18.73,0-10.03,29.74-18.17,66.42-18.17,35.58,0,64.42,7.89,64.42,17.62,0,9.44-27.98,17.1-62.49,17.1-33.48,0-60.62-7.42-60.62-16.58,0-15.15,51.97-9.55,51.97-33.82"/><line class="cls-7" x1="430.36" y1="310.01" x2="430.36" y2="266.4"/><line class="cls-7" x1="458.94" y1="266.4" x2="458.94" y2="298.96"/><line class="cls-11" x1="444.6" y1="285.4" x2="444.6" y2="290.36"/><line class="cls-1" x1="444.6" y1="296.67" x2="444.6" y2="325.06"/><line class="cls-3" x1="444.6" y1="328.22" x2="444.6" y2="514.32"/><line class="cls-11" x1="444.6" y1="517.48" x2="444.6" y2="522.44"/><polygon class="cls-13" points="444.6 277.92 440.29 288.46 444.6 285.96 448.9 288.46 444.6 277.92"/><polygon class="cls-13" points="444.6 529.92 440.29 519.38 444.6 521.88 448.9 519.38 444.6 529.92"/><path class="cls-4" d="m377.87,301.24c31.13,22.41,36,75.72,36,108.5,0,22.16-5.01,58.38-37.31,95.27"/><polygon class="cls-13" points="371.52 297.3 378.11 306.58 378.31 301.61 382.72 299.31 371.52 297.3"/><polygon class="cls-13" points="371.52 510.54 375.37 499.83 376.9 504.56 381.77 505.59 371.52 510.54"/><path class="cls-4" d="m512.5,506.6c-31.13-22.41-36-75.72-36-108.5,0-22.16,5.01-58.38,37.31-95.27"/><polygon class="cls-13" points="518.85 510.54 512.26 501.26 512.07 506.23 507.65 508.53 518.85 510.54"/><polygon class="cls-13" points="518.85 297.3 515 308.01 513.47 303.28 508.6 302.25 518.85 297.3"/><path class="cls-8" d="m430.1,512.26c0-27.36-169.37-28.97-169.37-63.44,0-21.43,82.03-38.8,183.23-38.8s179.56,17.02,179.56,38.03-78.79,37.27-175.97,37.27-172.45-16.35-172.45-36.52,75.67-35.79,169-35.79,165.62,15.7,165.62,35.07-72.67,34.37-162.31,34.37-159.07-15.08-159.07-33.69,69.79-33.01,155.88-33.01,152.77,14.48,152.77,32.35-67.03,31.7-149.71,31.7-146.72-13.91-146.72-31.07,64.37-30.45,143.78-30.45,140.91,13.36,140.91,29.84-61.82,29.24-138.09,29.24-135.33-12.83-135.33-28.66,59.38-28.08,132.62-28.08,129.97,12.32,129.97,27.52c0,22.33-111.21,21.31-111.21,45.39"/><line class="cls-8" x1="430.1" y1="512.26" x2="430.1" y2="540"/><line class="cls-8" x1="463.22" y1="493.54" x2="463.22" y2="540"/></g><g id="Line"><rect class="cls-10" x="271.8" y="7.2" width="345.6" height="381.22" rx="47.97" ry="47.97"/><path class="cls-15" d="m274.35,406.18h-4.11v11.42h-1.68v-11.42h-4.1v-1.38h9.9v1.38Z"/><path class="cls-15" d="m280.43,409.71l3.07-4.9h1.99l-4.04,6.35,4.14,6.45h-2l-3.15-4.99-3.16,4.99h-2l4.15-6.45-4.05-6.35h1.98l3.08,4.9Z"/><path class="cls-15" d="m776.07,340.42h-3.01v5.18h-1.7v-12.8h4.24c1.44,0,2.55.33,3.33.98s1.17,1.61,1.17,2.87c0,.8-.22,1.49-.65,2.08s-1.03,1.03-1.8,1.33l3.01,5.43v.11h-1.81l-2.78-5.18Zm-3.01-1.38h2.59c.84,0,1.5-.22,2-.65s.74-1.02.74-1.74c0-.79-.24-1.4-.71-1.82s-1.15-.64-2.04-.64h-2.58v4.86Z"/><path class="cls-15" d="m786.15,345.78c-1.29,0-2.34-.42-3.15-1.27s-1.21-1.98-1.21-3.4v-.3c0-.94.18-1.79.54-2.53s.86-1.32,1.51-1.74,1.35-.63,2.11-.63c1.24,0,2.2.41,2.88,1.22s1.03,1.98,1.03,3.5v.68h-6.44c.02.94.3,1.7.82,2.27.52.58,1.19.87,2,.87.57,0,1.06-.12,1.46-.35s.75-.54,1.05-.93l.99.77c-.8,1.22-1.99,1.84-3.59,1.84Zm-.2-8.53c-.66,0-1.21.24-1.65.72s-.72,1.15-.83,2.01h4.76v-.12c-.05-.83-.27-1.47-.67-1.92s-.94-.68-1.62-.68Z"/><path class="cls-15" d="m795.56,344.45c.58,0,1.09-.18,1.52-.53s.67-.79.72-1.32h1.54c-.03.54-.22,1.06-.56,1.56s-.81.88-1.38,1.18-1.19.44-1.83.44c-1.29,0-2.33-.43-3.09-1.3-.76-.86-1.15-2.05-1.15-3.55v-.27c0-.93.17-1.75.51-2.47s.83-1.28,1.46-1.68,1.39-.6,2.25-.6c1.07,0,1.95.32,2.66.96s1.08,1.47,1.13,2.49h-1.54c-.05-.62-.28-1.12-.7-1.52-.42-.4-.94-.59-1.55-.59-.83,0-1.47.3-1.92.89s-.68,1.45-.68,2.58v.31c0,1.1.23,1.94.68,2.53s1.1.89,1.93.89Z"/><path class="cls-15" d="m803.37,333.79v2.3h1.78v1.26h-1.78v5.91c0,.38.08.67.24.86s.43.29.81.29c.19,0,.45-.04.77-.11v1.31c-.43.12-.84.17-1.25.17-.73,0-1.27-.22-1.64-.66s-.55-1.06-.55-1.87v-5.9h-1.73v-1.26h1.73v-2.3h1.63Z"/><path class="cls-15" d="m807.05,333.57c0-.26.08-.49.24-.67s.4-.27.72-.27.56.09.72.27.25.4.25.67-.08.48-.25.66-.4.26-.72.26-.56-.09-.72-.26-.24-.4-.24-.66Zm1.76,12.03h-1.63v-9.51h1.63v9.51Z"/><path class="cls-15" d="m812.21,345.6v-8.25h-1.5v-1.26h1.5v-.98c0-1.02.27-1.81.82-2.36s1.32-.83,2.31-.83c.38,0,.75.05,1.12.15l-.09,1.31c-.28-.05-.57-.08-.88-.08-.53,0-.93.15-1.22.46s-.43.75-.43,1.33v1h2.03v1.26h-2.03v8.25h-1.63Z"/><path class="cls-15" d="m817.67,333.57c0-.26.08-.49.24-.67s.4-.27.72-.27.56.09.72.27.25.4.25.67-.08.48-.25.66-.4.26-.72.26-.56-.09-.72-.26-.24-.4-.24-.66Zm1.76,12.03h-1.63v-9.51h1.63v9.51Z"/><path class="cls-15" d="m825.98,345.78c-1.29,0-2.34-.42-3.15-1.27s-1.21-1.98-1.21-3.4v-.3c0-.94.18-1.79.54-2.53s.86-1.32,1.51-1.74,1.35-.63,2.11-.63c1.24,0,2.2.41,2.88,1.22s1.03,1.98,1.03,3.5v.68h-6.44c.02.94.3,1.7.82,2.27.52.58,1.19.87,2,.87.57,0,1.06-.12,1.46-.35s.75-.54,1.05-.93l.99.77c-.8,1.22-1.99,1.84-3.59,1.84Zm-.2-8.53c-.66,0-1.21.24-1.65.72s-.72,1.15-.83,2.01h4.76v-.12c-.05-.83-.27-1.47-.67-1.92s-.94-.68-1.62-.68Z"/><path class="cls-15" d="m836.16,337.55c-.25-.04-.51-.06-.8-.06-1.07,0-1.79.45-2.17,1.36v6.75h-1.63v-9.51h1.58l.03,1.1c.53-.85,1.29-1.27,2.27-1.27.32,0,.56.04.72.12v1.51Z"/><path class="cls-15" d="m738.71,362.19v5.01h-1.69v-12.8h4.72c1.4,0,2.5.36,3.29,1.07s1.19,1.66,1.19,2.84c0,1.24-.39,2.2-1.16,2.87s-1.89,1.01-3.34,1.01h-3.01Zm0-1.38h3.03c.9,0,1.59-.21,2.07-.64.48-.42.72-1.04.72-1.84,0-.76-.24-1.37-.72-1.83s-1.14-.7-1.98-.71h-3.13v5.03Z"/><path class="cls-15" d="m747.58,362.36c0-.93.18-1.77.55-2.51s.88-1.32,1.53-1.72,1.4-.61,2.24-.61c1.29,0,2.34.45,3.14,1.34s1.2,2.09,1.2,3.58v.11c0,.93-.18,1.76-.53,2.49-.35.74-.86,1.31-1.52,1.72s-1.42.62-2.27.62c-1.29,0-2.33-.45-3.13-1.34s-1.2-2.08-1.2-3.56v-.11Zm1.63.19c0,1.05.25,1.9.73,2.54s1.14.96,1.96.96,1.48-.32,1.97-.97c.49-.65.73-1.55.73-2.72,0-1.04-.25-1.89-.74-2.54-.5-.65-1.15-.97-1.97-.97s-1.45.32-1.94.96-.74,1.55-.74,2.74Z"/><path class="cls-15" d="m766.7,364.96l1.83-7.27h1.63l-2.77,9.51h-1.32l-2.31-7.21-2.25,7.21h-1.32l-2.76-9.51h1.62l1.87,7.12,2.21-7.12h1.31l2.26,7.27Z"/><path class="cls-15" d="m775.75,367.38c-1.29,0-2.34-.42-3.15-1.27s-1.21-1.98-1.21-3.4v-.3c0-.94.18-1.79.54-2.53s.86-1.32,1.51-1.74,1.35-.63,2.1-.63c1.24,0,2.2.41,2.88,1.22s1.03,1.98,1.03,3.5v.68h-6.44c.02.94.3,1.7.82,2.27.52.58,1.19.87,2,.87.57,0,1.06-.12,1.46-.35s.75-.54,1.05-.93l.99.77c-.8,1.22-1.99,1.84-3.59,1.84Zm-.2-8.53c-.66,0-1.21.24-1.65.72s-.72,1.15-.83,2.01h4.76v-.12c-.05-.83-.27-1.47-.67-1.92s-.94-.68-1.62-.68Z"/><path class="cls-15" d="m785.94,359.15c-.25-.04-.51-.06-.8-.06-1.07,0-1.79.45-2.17,1.36v6.75h-1.63v-9.51h1.58l.03,1.1c.53-.85,1.29-1.27,2.27-1.27.32,0,.56.04.72.12v1.51Z"/><path class="cls-15" d="m796.84,362.02h-3.01v5.18h-1.7v-12.8h4.24c1.44,0,2.55.33,3.33.98s1.16,1.61,1.16,2.87c0,.8-.21,1.49-.65,2.08s-1.03,1.03-1.8,1.33l3.01,5.43v.11h-1.81l-2.78-5.18Zm-3.01-1.38h2.59c.84,0,1.5-.22,2-.65s.74-1.02.74-1.74c0-.79-.24-1.4-.71-1.82s-1.15-.64-2.04-.64h-2.58v4.86Z"/><path class="cls-15" d="m806.92,367.38c-1.29,0-2.34-.42-3.15-1.27s-1.21-1.98-1.21-3.4v-.3c0-.94.18-1.79.54-2.53s.86-1.32,1.51-1.74,1.35-.63,2.1-.63c1.24,0,2.2.41,2.88,1.22s1.03,1.98,1.03,3.5v.68h-6.44c.02.94.3,1.7.82,2.27.52.58,1.19.87,2,.87.57,0,1.06-.12,1.46-.35s.75-.54,1.05-.93l.99.77c-.8,1.22-1.99,1.84-3.59,1.84Zm-.2-8.53c-.66,0-1.21.24-1.65.72s-.72,1.15-.83,2.01h4.76v-.12c-.05-.83-.27-1.47-.67-1.92s-.94-.68-1.62-.68Z"/><path class="cls-15" d="m816.32,366.05c.58,0,1.09-.18,1.52-.53s.67-.79.72-1.32h1.54c-.03.54-.22,1.06-.56,1.56s-.81.88-1.38,1.18-1.19.44-1.83.44c-1.29,0-2.32-.43-3.09-1.3-.76-.86-1.15-2.05-1.15-3.55v-.27c0-.93.17-1.75.51-2.47s.83-1.28,1.46-1.68,1.39-.6,2.25-.6c1.07,0,1.95.32,2.66.96s1.08,1.47,1.13,2.49h-1.54c-.05-.62-.28-1.12-.7-1.52-.42-.4-.94-.59-1.55-.59-.83,0-1.47.3-1.92.89s-.68,1.45-.68,2.58v.31c0,1.1.23,1.94.68,2.53s1.1.89,1.93.89Z"/><path class="cls-15" d="m825.87,367.38c-1.29,0-2.34-.42-3.15-1.27s-1.21-1.98-1.21-3.4v-.3c0-.94.18-1.79.54-2.53s.86-1.32,1.51-1.74,1.35-.63,2.1-.63c1.24,0,2.2.41,2.88,1.22s1.03,1.98,1.03,3.5v.68h-6.44c.02.94.3,1.7.82,2.27.52.58,1.19.87,2,.87.57,0,1.06-.12,1.46-.35s.75-.54,1.05-.93l.99.77c-.8,1.22-1.99,1.84-3.59,1.84Zm-.2-8.53c-.66,0-1.21.24-1.65.72s-.72,1.15-.83,2.01h4.76v-.12c-.05-.83-.27-1.47-.67-1.92s-.94-.68-1.62-.68Z"/><path class="cls-15" d="m839.5,362.55c0,1.45-.33,2.61-.99,3.5s-1.56,1.33-2.69,1.33-2.06-.37-2.72-1.1v4.58h-1.63v-13.17h1.49l.08,1.05c.66-.82,1.58-1.23,2.76-1.23s2.05.43,2.71,1.29,1,2.06,1,3.59v.15Zm-1.63-.18c0-1.07-.23-1.92-.69-2.54s-1.08-.93-1.88-.93c-.98,0-1.72.44-2.21,1.31v4.54c.49.87,1.23,1.3,2.23,1.3.78,0,1.4-.31,1.86-.93s.69-1.54.69-2.76Z"/><path class="cls-15" d="m843.77,355.39v2.3h1.78v1.26h-1.78v5.91c0,.38.08.67.24.86s.43.29.81.29c.19,0,.45-.04.77-.11v1.31c-.43.12-.84.17-1.25.17-.73,0-1.27-.22-1.64-.66s-.55-1.06-.55-1.87v-5.9h-1.73v-1.26h1.73v-2.3h1.63Z"/><path class="cls-15" d="m847.45,355.17c0-.26.08-.49.24-.67s.4-.27.72-.27.56.09.72.27.25.4.25.67-.08.48-.25.66-.4.26-.72.26-.55-.09-.72-.26-.24-.4-.24-.66Zm1.76,12.03h-1.63v-9.51h1.63v9.51Z"/><path class="cls-15" d="m851.38,362.36c0-.93.18-1.77.55-2.51s.88-1.32,1.53-1.72,1.4-.61,2.24-.61c1.29,0,2.34.45,3.14,1.34s1.2,2.09,1.2,3.58v.11c0,.93-.18,1.76-.53,2.49-.35.74-.86,1.31-1.52,1.72s-1.42.62-2.27.62c-1.29,0-2.33-.45-3.13-1.34s-1.2-2.08-1.2-3.56v-.11Zm1.63.19c0,1.05.25,1.9.73,2.54s1.14.96,1.96.96,1.48-.32,1.97-.97c.49-.65.73-1.55.73-2.72,0-1.04-.25-1.89-.74-2.54-.5-.65-1.15-.97-1.97-.97s-1.45.32-1.94.96-.74,1.55-.74,2.74Z"/><path class="cls-15" d="m863.61,357.69l.05,1.2c.73-.91,1.68-1.37,2.85-1.37,2.01,0,3.02,1.13,3.04,3.4v6.28h-1.63v-6.29c0-.69-.16-1.19-.47-1.52s-.79-.49-1.44-.49c-.53,0-.99.14-1.39.42s-.71.65-.93,1.11v6.78h-1.63v-9.51h1.54Z"/><path class="cls-15" d="m324.32,306.68h-3.01v5.18h-1.7v-12.8h4.24c1.44,0,2.55.33,3.33.98s1.16,1.61,1.16,2.87c0,.8-.22,1.49-.65,2.08s-1.03,1.03-1.8,1.33l3.01,5.43v.11h-1.81l-2.78-5.18Zm-3.01-1.38h2.59c.84,0,1.5-.22,2-.65s.74-1.02.74-1.74c0-.79-.24-1.4-.71-1.82-.47-.42-1.15-.64-2.04-.64h-2.58v4.86Z"/><path class="cls-15" d="m334.88,303.96l3.07-4.9h1.99l-4.04,6.35,4.14,6.45h-2l-3.15-4.99-3.16,4.99h-2l4.15-6.45-4.05-6.35h1.98l3.08,4.9Z"/><line class="cls-9" x1="401.4" y1="108" x2="487.8" y2="108"/><line class="cls-9" x1="401.4" y1="79.2" x2="401.4" y2="108"/><line class="cls-9" x1="487.8" y1="108" x2="487.8" y2="79.33"/><line class="cls-9" x1="516.6" y1="36" x2="487.8" y2="79.2"/><line class="cls-9" x1="372.6" y1="36" x2="401.4" y2="79.2"/><line class="cls-9" x1="516.6" y1="36" x2="372.6" y2="36"/><line class="cls-9" x1="401.4" y1="79.2" x2="487.8" y2="79.2"/><rect class="cls-9" x="329.4" y="136.8" width="230.4" height="129.6"/><line class="cls-9" x1="430.2" y1="136.8" x2="430.2" y2="108"/><line class="cls-9" x1="459" y1="136.8" x2="459" y2="108"/><path class="cls-15" d="m726.34,498.99v5.01h-1.69v-12.8h4.72c1.4,0,2.5.36,3.29,1.07s1.19,1.66,1.19,2.84c0,1.24-.39,2.2-1.16,2.87s-1.89,1.01-3.34,1.01h-3.01Zm0-1.38h3.03c.9,0,1.59-.21,2.07-.64.48-.42.72-1.04.72-1.84,0-.76-.24-1.37-.72-1.83s-1.14-.7-1.98-.71h-3.13v5.03Z"/><path class="cls-15" d="m735.21,499.16c0-.93.18-1.77.55-2.51s.88-1.32,1.53-1.72,1.4-.61,2.24-.61c1.29,0,2.34.45,3.14,1.34s1.2,2.09,1.2,3.58v.11c0,.93-.18,1.76-.53,2.49-.35.74-.86,1.31-1.52,1.72s-1.42.62-2.27.62c-1.29,0-2.33-.45-3.13-1.34s-1.2-2.08-1.2-3.56v-.11Zm1.63.19c0,1.05.25,1.9.73,2.54s1.14.96,1.96.96,1.48-.32,1.97-.97c.49-.65.73-1.55.73-2.72,0-1.04-.25-1.89-.74-2.54-.5-.65-1.15-.97-1.97-.97s-1.45.32-1.94.96-.74,1.55-.74,2.74Z"/><path class="cls-15" d="m754.33,501.76l1.83-7.27h1.63l-2.77,9.51h-1.32l-2.31-7.21-2.25,7.21h-1.32l-2.76-9.51h1.62l1.87,7.12,2.21-7.12h1.31l2.26,7.27Z"/><path class="cls-15" d="m763.38,504.18c-1.29,0-2.34-.42-3.15-1.27s-1.21-1.98-1.21-3.4v-.3c0-.94.18-1.79.54-2.53s.86-1.32,1.51-1.74,1.35-.63,2.1-.63c1.24,0,2.2.41,2.88,1.22s1.03,1.98,1.03,3.5v.68h-6.44c.02.94.3,1.7.82,2.27.52.58,1.19.87,2,.87.57,0,1.06-.12,1.46-.35s.75-.54,1.05-.93l.99.77c-.8,1.22-1.99,1.84-3.59,1.84Zm-.2-8.53c-.66,0-1.21.24-1.65.72s-.72,1.15-.83,2.01h4.76v-.12c-.05-.83-.27-1.47-.67-1.92s-.94-.68-1.62-.68Z"/><path class="cls-15" d="m773.57,495.95c-.25-.04-.51-.06-.8-.06-1.07,0-1.79.45-2.17,1.36v6.75h-1.63v-9.51h1.58l.03,1.1c.53-.85,1.29-1.27,2.27-1.27.32,0,.56.04.72.12v1.51Z"/><path class="cls-15" d="m788.26,492.58h-4.11v11.42h-1.68v-11.42h-4.1v-1.38h9.9v1.38Z"/><path class="cls-15" d="m793.84,495.95c-.25-.04-.51-.06-.8-.06-1.07,0-1.79.45-2.17,1.36v6.75h-1.63v-9.51h1.58l.03,1.1c.53-.85,1.29-1.27,2.27-1.27.32,0,.56.04.72.12v1.51Z"/><path class="cls-15" d="m800.86,504c-.09-.19-.17-.52-.23-1-.76.79-1.66,1.18-2.71,1.18-.94,0-1.71-.26-2.31-.79s-.9-1.2-.9-2.02c0-.99.38-1.76,1.13-2.31s1.81-.82,3.18-.82h1.58v-.75c0-.57-.17-1.02-.51-1.36-.34-.34-.84-.5-1.5-.5-.58,0-1.07.15-1.46.44s-.59.65-.59,1.06h-1.63c0-.47.17-.93.51-1.38s.79-.79,1.37-1.05,1.21-.39,1.9-.39c1.1,0,1.95.27,2.58.82s.94,1.3.97,2.26v4.38c0,.87.11,1.57.33,2.08v.14h-1.71Zm-2.7-1.24c.51,0,.99-.13,1.45-.4s.79-.61.99-1.03v-1.95h-1.27c-1.99,0-2.99.58-2.99,1.75,0,.51.17.91.51,1.2s.78.43,1.31.43Z"/><path class="cls-15" d="m806.31,494.49l.05,1.2c.73-.91,1.68-1.37,2.85-1.37,2.01,0,3.02,1.13,3.04,3.4v6.28h-1.63v-6.29c0-.69-.16-1.19-.47-1.52s-.79-.49-1.44-.49c-.53,0-.99.14-1.39.42s-.71.65-.93,1.11v6.78h-1.63v-9.51h1.54Z"/><path class="cls-15" d="m820.24,501.48c0-.44-.17-.78-.5-1.02-.33-.24-.91-.45-1.73-.63s-1.48-.39-1.96-.63-.84-.54-1.07-.88-.35-.74-.35-1.21c0-.78.33-1.44.99-1.98s1.5-.81,2.53-.81c1.08,0,1.95.28,2.62.83s1.01,1.27,1.01,2.14h-1.63c0-.45-.19-.83-.57-1.15s-.85-.48-1.43-.48-1.05.13-1.39.39-.5.59-.5,1.01c0,.39.16.69.47.89s.87.39,1.68.57,1.47.4,1.97.65.88.56,1.12.91c.24.36.36.79.36,1.3,0,.85-.34,1.53-1.02,2.04-.68.51-1.56.77-2.65.77-.76,0-1.44-.13-2.02-.4s-1.04-.65-1.38-1.13c-.33-.48-.5-1.01-.5-1.57h1.63c.03.54.25.98.66,1.3.41.32.94.48,1.61.48.62,0,1.11-.12,1.48-.37.37-.25.56-.58.56-1Z"/><path class="cls-15" d="m825.52,494.49l.04,1.05c.7-.82,1.64-1.23,2.82-1.23,1.33,0,2.24.51,2.72,1.53.32-.46.73-.83,1.24-1.11.51-.28,1.11-.42,1.8-.42,2.09,0,3.15,1.1,3.18,3.31v6.37h-1.63v-6.28c0-.68-.16-1.19-.47-1.53-.31-.34-.83-.5-1.56-.5-.6,0-1.1.18-1.5.54-.4.36-.63.85-.69,1.46v6.31h-1.63v-6.23c0-1.38-.68-2.07-2.03-2.07-1.07,0-1.8.45-2.19,1.36v6.94h-1.63v-9.51h1.54Z"/><path class="cls-15" d="m839.77,491.97c0-.26.08-.49.24-.67s.4-.27.72-.27.56.09.72.27.25.4.25.67-.08.48-.25.66-.4.26-.72.26-.56-.09-.72-.26-.24-.4-.24-.66Zm1.76,12.03h-1.63v-9.51h1.63v9.51Z"/><path class="cls-15" d="m849.67,501.48c0-.44-.17-.78-.5-1.02-.33-.24-.91-.45-1.73-.63s-1.48-.39-1.96-.63c-.48-.25-.84-.54-1.07-.88-.23-.34-.35-.74-.35-1.21,0-.78.33-1.44.99-1.98.66-.54,1.5-.81,2.53-.81,1.08,0,1.95.28,2.62.83s1.01,1.27,1.01,2.14h-1.63c0-.45-.19-.83-.57-1.15-.38-.32-.85-.48-1.43-.48s-1.05.13-1.39.39-.5.59-.5,1.01c0,.39.16.69.47.89s.87.39,1.68.57c.81.18,1.47.4,1.97.65s.88.56,1.12.91c.24.36.36.79.36,1.3,0,.85-.34,1.53-1.02,2.04-.68.51-1.56.77-2.65.77-.76,0-1.44-.13-2.02-.4s-1.04-.65-1.38-1.13c-.33-.48-.5-1.01-.5-1.57h1.63c.03.54.25.98.65,1.3.41.32.95.48,1.61.48.62,0,1.11-.12,1.48-.37.37-.25.56-.58.56-1Z"/><path class="cls-15" d="m858.95,501.48c0-.44-.17-.78-.5-1.02-.33-.24-.91-.45-1.73-.63s-1.48-.39-1.96-.63c-.48-.25-.84-.54-1.07-.88-.23-.34-.35-.74-.35-1.21,0-.78.33-1.44.99-1.98.66-.54,1.5-.81,2.53-.81,1.08,0,1.95.28,2.62.83s1.01,1.27,1.01,2.14h-1.63c0-.45-.19-.83-.57-1.15-.38-.32-.85-.48-1.43-.48s-1.05.13-1.39.39-.5.59-.5,1.01c0,.39.16.69.47.89s.87.39,1.68.57c.81.18,1.47.4,1.97.65s.88.56,1.12.91c.24.36.36.79.36,1.3,0,.85-.34,1.53-1.02,2.04-.68.51-1.56.77-2.65.77-.76,0-1.44-.13-2.02-.4s-1.04-.65-1.38-1.13c-.33-.48-.5-1.01-.5-1.57h1.63c.03.54.25.98.65,1.3.41.32.95.48,1.61.48.62,0,1.11-.12,1.48-.37.37-.25.56-.58.56-1Z"/><path class="cls-15" d="m862.7,491.97c0-.26.08-.49.24-.67s.4-.27.72-.27.56.09.72.27.25.4.25.67-.08.48-.25.66-.4.26-.72.26-.56-.09-.72-.26-.24-.4-.24-.66Zm1.76,12.03h-1.63v-9.51h1.63v9.51Z"/><path class="cls-15" d="m866.63,499.16c0-.93.18-1.77.55-2.51.37-.74.88-1.32,1.53-1.72.65-.4,1.4-.61,2.24-.61,1.29,0,2.34.45,3.14,1.34.8.9,1.2,2.09,1.2,3.58v.11c0,.93-.18,1.76-.53,2.49-.36.74-.86,1.31-1.52,1.72-.66.41-1.42.62-2.27.62-1.29,0-2.33-.45-3.13-1.34-.8-.9-1.2-2.08-1.2-3.56v-.11Zm1.63.19c0,1.05.24,1.9.73,2.54s1.14.96,1.96.96,1.48-.32,1.97-.97c.49-.65.73-1.55.73-2.72,0-1.04-.25-1.89-.74-2.54-.5-.65-1.15-.97-1.97-.97s-1.45.32-1.94.96-.74,1.55-.74,2.74Z"/><path class="cls-15" d="m878.87,494.49l.05,1.2c.73-.91,1.68-1.37,2.85-1.37,2.01,0,3.02,1.13,3.04,3.4v6.28h-1.63v-6.29c0-.69-.16-1.19-.47-1.52-.31-.33-.79-.49-1.44-.49-.53,0-.99.14-1.39.42s-.71.65-.93,1.11v6.78h-1.63v-9.51h1.54Z"/><path class="cls-15" d="m737.61,522.25h-5.36l-1.2,3.35h-1.74l4.89-12.8h1.48l4.9,12.8h-1.73l-1.22-3.35Zm-4.85-1.38h4.35l-2.18-5.99-2.17,5.99Z"/><path class="cls-15" d="m743.8,525.6h-1.63v-13.5h1.63v13.5Z"/><path class="cls-15" d="m748.61,513.79v2.3h1.78v1.26h-1.78v5.91c0,.38.08.67.24.86s.43.29.81.29c.19,0,.45-.04.77-.11v1.31c-.43.12-.84.17-1.25.17-.73,0-1.27-.22-1.64-.66s-.55-1.06-.55-1.87v-5.9h-1.73v-1.26h1.73v-2.3h1.63Z"/><path class="cls-15" d="m756.23,525.77c-1.29,0-2.34-.42-3.15-1.27s-1.21-1.98-1.21-3.4v-.3c0-.94.18-1.79.54-2.53s.86-1.32,1.51-1.74,1.35-.63,2.11-.63c1.24,0,2.2.41,2.88,1.22s1.03,1.98,1.03,3.5v.68h-6.44c.02.94.3,1.7.82,2.27.52.58,1.19.87,2,.87.57,0,1.06-.12,1.46-.35s.75-.54,1.05-.93l.99.77c-.8,1.22-1.99,1.84-3.59,1.84Zm-.2-8.53c-.66,0-1.21.24-1.65.72s-.72,1.15-.83,2.01h4.76v-.12c-.05-.83-.27-1.47-.67-1.92s-.94-.68-1.62-.68Z"/><path class="cls-15" d="m766.42,517.55c-.25-.04-.51-.06-.8-.06-1.07,0-1.79.45-2.17,1.36v6.75h-1.63v-9.51h1.58l.03,1.1c.53-.85,1.29-1.27,2.27-1.27.32,0,.56.04.72.12v1.51Z"/><path class="cls-15" d="m769.45,516.09l.05,1.2c.73-.91,1.68-1.37,2.85-1.37,2.01,0,3.02,1.13,3.04,3.4v6.28h-1.63v-6.29c0-.69-.16-1.19-.47-1.52s-.79-.49-1.44-.49c-.53,0-.99.14-1.39.42s-.71.65-.93,1.11v6.78h-1.63v-9.51h1.54Z"/><path class="cls-15" d="m783.71,525.6c-.09-.19-.17-.52-.23-1-.76.79-1.66,1.18-2.71,1.18-.94,0-1.71-.26-2.31-.79s-.9-1.2-.9-2.02c0-.99.38-1.76,1.13-2.31s1.81-.82,3.18-.82h1.58v-.75c0-.57-.17-1.02-.51-1.36-.34-.34-.84-.5-1.5-.5-.58,0-1.07.15-1.46.44s-.59.65-.59,1.06h-1.63c0-.47.17-.93.5-1.38s.79-.79,1.37-1.05,1.21-.39,1.9-.39c1.1,0,1.95.27,2.58.82s.94,1.3.97,2.26v4.38c0,.87.11,1.57.33,2.08v.14h-1.71Zm-2.7-1.24c.51,0,.99-.13,1.45-.4s.79-.61.99-1.03v-1.95h-1.27c-1.99,0-2.99.58-2.99,1.75,0,.51.17.91.51,1.2s.78.43,1.31.43Z"/><path class="cls-15" d="m789.84,513.79v2.3h1.78v1.26h-1.78v5.91c0,.38.08.67.24.86s.43.29.81.29c.19,0,.45-.04.77-.11v1.31c-.43.12-.84.17-1.25.17-.73,0-1.27-.22-1.64-.66s-.55-1.06-.55-1.87v-5.9h-1.73v-1.26h1.73v-2.3h1.63Z"/><path class="cls-15" d="m793.52,513.57c0-.26.08-.49.24-.67s.4-.27.72-.27.56.09.72.27.25.4.25.67-.08.48-.25.66-.4.26-.72.26-.56-.09-.72-.26-.24-.4-.24-.66Zm1.76,12.03h-1.63v-9.51h1.63v9.51Z"/><path class="cls-15" d="m799.42,516.09l.05,1.2c.73-.91,1.68-1.37,2.85-1.37,2.01,0,3.02,1.13,3.04,3.4v6.28h-1.63v-6.29c0-.69-.16-1.19-.47-1.52s-.79-.49-1.44-.49c-.53,0-.99.14-1.39.42s-.71.65-.93,1.11v6.78h-1.63v-9.51h1.54Z"/><path class="cls-15" d="m807.43,520.77c0-1.48.34-2.66,1.03-3.54s1.59-1.31,2.72-1.31,2.07.41,2.72,1.23l.08-1.05h1.49v9.28c0,1.23-.37,2.2-1.09,2.91s-1.71,1.06-2.94,1.06c-.69,0-1.36-.15-2.01-.44s-1.16-.69-1.5-1.2l.84-.98c.7.86,1.55,1.29,2.56,1.29.79,0,1.41-.22,1.85-.67s.66-1.07.66-1.88v-.82c-.65.75-1.54,1.12-2.66,1.12s-2.01-.45-2.7-1.34-1.03-2.12-1.03-3.67Zm1.63.18c0,1.07.22,1.92.66,2.53.44.61,1.05.92,1.85.92,1.03,0,1.78-.47,2.26-1.4v-4.34c-.5-.91-1.25-1.36-2.24-1.36-.79,0-1.41.31-1.85.92s-.67,1.53-.67,2.73Z"/><path class="cls-15" d="m832.03,521.54c-.16,1.35-.66,2.4-1.5,3.13-.84.74-1.96,1.1-3.35,1.1-1.51,0-2.72-.54-3.63-1.63s-1.37-2.53-1.37-4.35v-1.23c0-1.19.21-2.24.64-3.14s1.03-1.59,1.81-2.08c.78-.48,1.68-.72,2.71-.72,1.36,0,2.45.38,3.27,1.14s1.3,1.81,1.43,3.15h-1.7c-.15-1.02-.46-1.76-.95-2.22-.49-.46-1.17-.69-2.05-.69-1.08,0-1.92.4-2.54,1.2s-.92,1.93-.92,3.4v1.24c0,1.39.29,2.5.87,3.32s1.39,1.23,2.43,1.23c.94,0,1.66-.21,2.16-.64.5-.42.83-1.16,1-2.22h1.7Z"/><path class="cls-15" d="m839.95,524.66c-.63.74-1.56,1.12-2.79,1.12-1.01,0-1.79-.29-2.32-.88-.53-.59-.8-1.46-.8-2.62v-6.19h1.63v6.14c0,1.44.59,2.16,1.76,2.16,1.24,0,2.07-.46,2.48-1.39v-6.92h1.63v9.51h-1.55l-.04-.94Z"/><path class="cls-15" d="m848.6,517.55c-.25-.04-.51-.06-.8-.06-1.07,0-1.79.45-2.17,1.36v6.75h-1.63v-9.51h1.58l.03,1.1c.53-.85,1.29-1.27,2.27-1.27.32,0,.56.04.72.12v1.51Z"/><path class="cls-15" d="m854.69,517.55c-.25-.04-.51-.06-.8-.06-1.07,0-1.79.45-2.17,1.36v6.75h-1.63v-9.51h1.58l.03,1.1c.53-.85,1.29-1.27,2.27-1.27.32,0,.56.04.72.12v1.51Z"/><path class="cls-15" d="m859.97,525.77c-1.29,0-2.34-.42-3.15-1.27s-1.21-1.98-1.21-3.4v-.3c0-.94.18-1.79.54-2.53.36-.74.86-1.32,1.51-1.74s1.35-.63,2.11-.63c1.24,0,2.2.41,2.88,1.22s1.03,1.98,1.03,3.5v.68h-6.44c.02.94.3,1.7.82,2.27.52.58,1.19.87,2,.87.57,0,1.06-.12,1.46-.35s.75-.54,1.05-.93l.99.77c-.8,1.22-1.99,1.84-3.59,1.84Zm-.2-8.53c-.66,0-1.21.24-1.65.72s-.72,1.15-.83,2.01h4.76v-.12c-.05-.83-.27-1.47-.67-1.92s-.94-.68-1.62-.68Z"/><path class="cls-15" d="m867.09,516.09l.05,1.2c.73-.91,1.68-1.37,2.85-1.37,2.01,0,3.02,1.13,3.04,3.4v6.28h-1.63v-6.29c0-.69-.16-1.19-.47-1.52-.31-.33-.79-.49-1.44-.49-.53,0-.99.14-1.39.42s-.71.65-.93,1.11v6.78h-1.63v-9.51h1.54Z"/><path class="cls-15" d="m877.69,513.79v2.3h1.78v1.26h-1.78v5.91c0,.38.08.67.24.86s.43.29.81.29c.19,0,.45-.04.77-.11v1.31c-.43.12-.84.17-1.25.17-.73,0-1.27-.22-1.64-.66s-.55-1.06-.55-1.87v-5.9h-1.73v-1.26h1.73v-2.3h1.63Z"/><path class="cls-15" d="m753.37,542.19v5.01h-1.69v-12.8h4.72c1.4,0,2.5.36,3.29,1.07s1.19,1.66,1.19,2.84c0,1.24-.39,2.2-1.17,2.87s-1.89,1.01-3.33,1.01h-3.01Zm0-1.38h3.03c.9,0,1.59-.21,2.07-.64.48-.42.72-1.04.72-1.84,0-.76-.24-1.37-.72-1.83s-1.14-.7-1.98-.71h-3.13v5.03Z"/><path class="cls-15" d="m762.24,542.36c0-.93.18-1.77.55-2.51s.88-1.32,1.53-1.72,1.4-.61,2.24-.61c1.29,0,2.34.45,3.14,1.34s1.2,2.09,1.2,3.58v.11c0,.93-.18,1.76-.53,2.49-.35.74-.86,1.31-1.52,1.72s-1.42.62-2.27.62c-1.29,0-2.33-.45-3.13-1.34s-1.2-2.08-1.2-3.56v-.11Zm1.63.19c0,1.05.24,1.9.73,2.54s1.14.96,1.96.96,1.48-.32,1.97-.97c.49-.65.73-1.55.73-2.72,0-1.04-.25-1.89-.74-2.54-.5-.65-1.15-.97-1.97-.97s-1.45.32-1.94.96-.74,1.55-.74,2.74Z"/><path class="cls-15" d="m781.36,544.96l1.83-7.27h1.63l-2.77,9.51h-1.32l-2.31-7.21-2.25,7.21h-1.32l-2.76-9.51h1.62l1.87,7.12,2.21-7.12h1.31l2.26,7.27Z"/><path class="cls-15" d="m790.41,547.38c-1.29,0-2.34-.42-3.15-1.27s-1.21-1.98-1.21-3.4v-.3c0-.94.18-1.79.54-2.53s.86-1.32,1.51-1.74,1.35-.63,2.11-.63c1.24,0,2.2.41,2.88,1.22s1.03,1.98,1.03,3.5v.68h-6.44c.02.94.3,1.7.82,2.27.52.58,1.19.87,2,.87.57,0,1.06-.12,1.46-.35s.75-.54,1.05-.93l.99.77c-.8,1.22-1.99,1.84-3.59,1.84Zm-.2-8.53c-.66,0-1.21.24-1.65.72s-.72,1.15-.83,2.01h4.76v-.12c-.05-.83-.27-1.47-.67-1.92s-.94-.68-1.62-.68Z"/><path class="cls-15" d="m800.6,539.15c-.25-.04-.51-.06-.8-.06-1.07,0-1.79.45-2.17,1.36v6.75h-1.63v-9.51h1.58l.03,1.1c.53-.85,1.29-1.27,2.27-1.27.32,0,.56.04.72.12v1.51Z"/><path class="cls-15" d="m810.57,541.5c-1.45-.42-2.5-.93-3.16-1.53-.66-.61-.99-1.35-.99-2.25,0-1.01.4-1.84,1.21-2.5.81-.66,1.85-.99,3.14-.99.88,0,1.66.17,2.35.51s1.22.81,1.6,1.41.57,1.25.57,1.96h-1.7c0-.78-.25-1.39-.74-1.83s-1.19-.67-2.08-.67c-.83,0-1.48.18-1.95.55-.47.37-.7.88-.7,1.53,0,.52.22.96.66,1.33s1.2.69,2.26.99c1.06.3,1.9.63,2.5.99.6.36,1.05.78,1.34,1.26s.44,1.05.44,1.7c0,1.04-.4,1.87-1.21,2.49-.81.62-1.89.94-3.24.94-.88,0-1.7-.17-2.46-.51-.76-.34-1.35-.8-1.76-1.38s-.62-1.25-.62-2h1.7c0,.77.29,1.38.86,1.83.57.45,1.33.67,2.29.67.89,0,1.57-.18,2.05-.54s.71-.86.71-1.49-.22-1.11-.66-1.46c-.44-.34-1.24-.68-2.39-1.01Z"/><path class="cls-15" d="m823.1,546.26c-.63.74-1.56,1.12-2.79,1.12-1.01,0-1.79-.29-2.32-.88-.53-.59-.8-1.46-.8-2.62v-6.19h1.63v6.14c0,1.44.59,2.16,1.76,2.16,1.24,0,2.07-.46,2.48-1.39v-6.92h1.63v9.51h-1.55l-.04-.94Z"/><path class="cls-15" d="m835.18,542.55c0,1.45-.33,2.61-.99,3.5s-1.56,1.33-2.69,1.33-2.06-.37-2.72-1.1v4.58h-1.63v-13.17h1.49l.08,1.05c.66-.82,1.58-1.23,2.76-1.23s2.04.43,2.71,1.29c.66.86,1,2.06,1,3.59v.15Zm-1.63-.18c0-1.07-.23-1.92-.69-2.54s-1.08-.93-1.88-.93c-.98,0-1.72.44-2.21,1.31v4.54c.49.87,1.23,1.3,2.23,1.3.78,0,1.4-.31,1.86-.93.46-.62.69-1.54.69-2.76Z"/><path class="cls-15" d="m845.28,542.55c0,1.45-.33,2.61-.99,3.5s-1.56,1.33-2.69,1.33-2.06-.37-2.72-1.1v4.58h-1.63v-13.17h1.49l.08,1.05c.66-.82,1.58-1.23,2.76-1.23s2.05.43,2.71,1.29,1,2.06,1,3.59v.15Zm-1.63-.18c0-1.07-.23-1.92-.69-2.54s-1.08-.93-1.88-.93c-.98,0-1.72.44-2.21,1.31v4.54c.49.87,1.23,1.3,2.23,1.3.78,0,1.4-.31,1.86-.93s.69-1.54.69-2.76Z"/><path class="cls-15" d="m849.11,547.2h-1.63v-13.5h1.63v13.5Z"/><path class="cls-15" d="m854.82,544.82l2.21-7.13h1.74l-3.82,10.98c-.59,1.58-1.53,2.37-2.82,2.37l-.31-.03-.61-.11v-1.32l.44.04c.55,0,.98-.11,1.29-.33.31-.22.56-.63.76-1.22l.36-.97-3.39-9.4h1.78l2.37,7.13Z"/><path class="cls-15" d="m174.53,497.38l1.69-.25-1.52-.36-8.93-2.53v-1.42l8.93-2.47,1.55-.35-1.72-.27-8.75-1.99v-1.7l12.8,3.1v1.54l-9.33,2.64-.98.2.98.2,9.33,2.73v1.54l-12.8,3.09v-1.69l8.76-2.02Z"/><path class="cls-15" d="m166.53,484.42c-.26,0-.49-.08-.67-.24-.18-.16-.27-.4-.27-.72s.09-.56.27-.72.4-.25.67-.25.48.08.66.25.26.4.26.72-.09.55-.26.72c-.18.16-.4.24-.66.24Zm12.03-1.76v1.63h-9.51v-1.63h9.51Z"/><path class="cls-15" d="m170.51,475.46c-.04.25-.06.51-.06.8,0,1.07.45,1.79,1.36,2.17h6.75v1.63h-9.51v-1.58l1.1-.03c-.85-.53-1.27-1.29-1.27-2.27,0-.32.04-.56.12-.72h1.51Z"/><path class="cls-15" d="m178.74,470.19c0,1.29-.42,2.34-1.27,3.15s-1.98,1.21-3.4,1.21h-.3c-.94,0-1.79-.18-2.53-.54-.74-.36-1.32-.86-1.74-1.51-.42-.65-.63-1.35-.63-2.1,0-1.24.41-2.2,1.22-2.88s1.98-1.03,3.5-1.03h.68v6.44c.94-.02,1.69-.3,2.27-.82.58-.53.87-1.19.87-2,0-.57-.12-1.06-.35-1.46s-.54-.75-.93-1.05l.77-.99c1.22.8,1.84,1.99,1.84,3.59Zm-8.53.2c0,.66.24,1.21.72,1.65s1.15.72,2.01.83v-4.76h-.12c-.83.05-1.47.27-1.92.67s-.68.94-.68,1.62Z"/><path class="cls-15" d="m178.56,462.83v1.63h-13.5v-1.63h13.5Z"/><path class="cls-15" d="m178.74,456.28c0,1.29-.42,2.34-1.27,3.15s-1.98,1.21-3.4,1.21h-.3c-.94,0-1.79-.18-2.53-.54-.74-.36-1.32-.86-1.74-1.51-.42-.65-.63-1.35-.63-2.1,0-1.24.41-2.2,1.22-2.88s1.98-1.03,3.5-1.03h.68v6.44c.94-.02,1.69-.3,2.27-.82.58-.53.87-1.19.87-2,0-.57-.12-1.06-.35-1.46s-.54-.75-.93-1.05l.77-.99c1.22.8,1.84,1.99,1.84,3.59Zm-8.53.2c0,.66.24,1.21.72,1.65s1.15.72,2.01.83v-4.76h-.12c-.83.05-1.47.27-1.92.67s-.68.94-.68,1.62Z"/><path class="cls-15" d="m176.04,445.15c-.44,0-.78.17-1.02.5-.24.33-.45.91-.63,1.73-.18.82-.39,1.48-.63,1.96-.25.48-.54.84-.88,1.07-.34.23-.74.35-1.21.35-.78,0-1.44-.33-1.98-.99-.54-.66-.81-1.5-.81-2.53,0-1.08.28-1.95.83-2.62.56-.67,1.27-1.01,2.14-1.01v1.63c-.45,0-.83.19-1.15.57-.32.38-.48.85-.48,1.43s.13,1.05.39,1.39.59.5,1.01.5c.39,0,.69-.16.89-.47s.39-.87.57-1.68c.18-.81.4-1.47.65-1.97s.56-.88.91-1.12c.35-.24.79-.36,1.3-.36.85,0,1.53.34,2.04,1.02s.77,1.56.77,2.65c0,.76-.13,1.44-.4,2.02s-.65,1.04-1.13,1.38c-.48.33-1.01.5-1.57.5v-1.63c.54-.03.98-.25,1.3-.65.32-.41.48-.95.48-1.61,0-.62-.12-1.11-.37-1.48-.25-.37-.58-.56-1-.56Z"/><path class="cls-15" d="m176.04,435.87c-.44,0-.78.17-1.02.5-.24.33-.45.91-.63,1.73-.18.82-.39,1.48-.63,1.96-.25.48-.54.84-.88,1.07-.34.23-.74.35-1.21.35-.78,0-1.44-.33-1.98-.99-.54-.66-.81-1.5-.81-2.53,0-1.08.28-1.95.83-2.62.56-.67,1.27-1.01,2.14-1.01v1.63c-.45,0-.83.19-1.15.57-.32.38-.48.85-.48,1.43s.13,1.05.39,1.39.59.5,1.01.5c.39,0,.69-.16.89-.47s.39-.87.57-1.68c.18-.81.4-1.47.65-1.97s.56-.88.91-1.12c.35-.24.79-.36,1.3-.36.85,0,1.53.34,2.04,1.02s.77,1.56.77,2.65c0,.76-.13,1.44-.4,2.02s-.65,1.04-1.13,1.38c-.48.33-1.01.5-1.57.5v-1.63c.54-.03.98-.25,1.3-.65.32-.41.48-.95.48-1.61,0-.62-.12-1.11-.37-1.48-.25-.37-.58-.56-1-.56Z"/><path class="cls-15" d="m173.55,425.73h5.01v1.69h-12.8v-4.72c0-1.4.36-2.5,1.07-3.29.71-.79,1.66-1.19,2.84-1.19,1.24,0,2.2.39,2.87,1.17.67.78,1.01,1.89,1.01,3.33v3.01Zm-1.38,0v-3.03c0-.9-.21-1.59-.64-2.07-.43-.48-1.04-.72-1.84-.72s-1.37.24-1.83.72c-.46.48-.7,1.14-.71,1.98v3.13h5.03Z"/><path class="cls-15" d="m173.72,416.86c-.93,0-1.77-.18-2.51-.55-.74-.37-1.32-.88-1.72-1.53-.4-.65-.61-1.4-.61-2.24,0-1.29.45-2.34,1.34-3.14.9-.8,2.09-1.2,3.58-1.2h.11c.93,0,1.76.18,2.49.53.74.36,1.31.86,1.72,1.52.41.66.62,1.42.62,2.27,0,1.29-.45,2.33-1.34,3.13-.9.8-2.08,1.2-3.56,1.2h-.11Zm.19-1.63c1.05,0,1.9-.25,2.54-.73.64-.49.96-1.14.96-1.96s-.32-1.48-.97-1.97-1.55-.73-2.72-.73c-1.04,0-1.89.25-2.54.74-.65.49-.97,1.15-.97,1.97s.32,1.45.96,1.94,1.55.74,2.74.74Z"/><path class="cls-15" d="m176.32,397.75l-7.27-1.83v-1.63l9.51,2.77v1.32l-7.21,2.31,7.21,2.25v1.32l-9.51,2.76v-1.62l7.12-1.87-7.12-2.21v-1.31l7.27-2.26Z"/><path class="cls-15" d="m178.74,388.69c0,1.29-.42,2.34-1.27,3.15s-1.98,1.21-3.4,1.21h-.3c-.94,0-1.79-.18-2.53-.54-.74-.36-1.32-.86-1.74-1.51s-.63-1.35-.63-2.11c0-1.24.41-2.2,1.22-2.88s1.98-1.03,3.5-1.03h.68v6.44c.94-.02,1.69-.3,2.27-.82.58-.52.87-1.19.87-2,0-.57-.12-1.06-.35-1.46s-.54-.75-.93-1.05l.77-.99c1.22.8,1.84,1.99,1.84,3.59Zm-8.53.2c0,.66.24,1.21.72,1.65s1.15.72,2.01.83v-4.76h-.12c-.83.05-1.47.27-1.92.67s-.68.94-.68,1.62Z"/><path class="cls-15" d="m170.51,378.51c-.04.25-.06.51-.06.8,0,1.07.45,1.79,1.36,2.17h6.75v1.63h-9.51v-1.58l1.1-.03c-.85-.53-1.27-1.29-1.27-2.27,0-.32.04-.56.12-.72h1.51Z"/><path class="cls-15" d="m167.14,363.81v4.11h11.42v1.68h-11.42v4.1h-1.38v-9.9h1.38Z"/><path class="cls-15" d="m170.51,358.23c-.04.25-.06.51-.06.8,0,1.07.45,1.79,1.36,2.17h6.75v1.63h-9.51v-1.58l1.1-.03c-.85-.53-1.27-1.29-1.27-2.27,0-.32.04-.56.12-.72h1.51Z"/><path class="cls-15" d="m178.56,351.22c-.19.09-.52.17-1,.23.79.76,1.18,1.66,1.18,2.71,0,.94-.27,1.71-.8,2.31-.53.6-1.2.9-2.02.9-.99,0-1.76-.38-2.31-1.13-.55-.75-.82-1.81-.82-3.18v-1.58h-.75c-.57,0-1.02.17-1.36.51s-.51.84-.51,1.5c0,.58.15,1.07.44,1.46s.65.59,1.06.59v1.63c-.47,0-.93-.17-1.38-.5s-.79-.79-1.05-1.37-.39-1.21-.39-1.9c0-1.1.27-1.95.82-2.58s1.3-.94,2.26-.97h4.38c.87,0,1.57-.11,2.08-.33h.14v1.71Zm-1.24,2.7c0-.51-.13-.99-.4-1.45s-.61-.79-1.03-.99h-1.95v1.27c0,1.99.58,2.99,1.75,2.99.51,0,.91-.17,1.2-.51s.43-.78.43-1.31Z"/><path class="cls-15" d="m169.05,345.76l1.2-.05c-.91-.73-1.37-1.68-1.37-2.85,0-2.01,1.13-3.02,3.4-3.04h6.28v1.63h-6.29c-.69,0-1.19.16-1.52.47-.33.31-.49.79-.49,1.44,0,.53.14.99.42,1.39s.65.71,1.11.93h6.78v1.63h-9.51v-1.54Z"/><path class="cls-15" d="m176.04,331.83c-.44,0-.78.17-1.02.5-.24.33-.45.91-.63,1.73s-.39,1.48-.63,1.96c-.25.48-.54.84-.88,1.07-.34.23-.74.35-1.21.35-.78,0-1.44-.33-1.98-.99-.54-.66-.81-1.5-.81-2.53,0-1.08.28-1.95.83-2.62s1.27-1.01,2.14-1.01v1.63c-.45,0-.83.19-1.15.57-.32.38-.48.85-.48,1.43s.13,1.05.39,1.39.59.5,1.01.5c.39,0,.69-.16.89-.47s.39-.87.57-1.68c.18-.81.4-1.47.65-1.97s.56-.88.91-1.12c.35-.24.79-.36,1.3-.36.85,0,1.53.34,2.04,1.02s.77,1.56.77,2.65c0,.76-.13,1.44-.4,2.02s-.65,1.04-1.13,1.38c-.48.33-1.01.5-1.57.5v-1.63c.54-.03.98-.25,1.3-.65s.48-.95.48-1.61c0-.62-.12-1.11-.37-1.48s-.58-.56-1-.56Z"/><path class="cls-15" d="m178.56,327.28h-8.25v1.5h-1.26v-1.5h-.98c-1.02,0-1.81-.27-2.36-.82s-.83-1.32-.83-2.31c0-.38.05-.75.15-1.12l1.31.09c-.05.28-.08.57-.08.88,0,.53.15.93.46,1.22s.75.43,1.33.43h1v-2.03h1.26v2.03h8.25v1.63Z"/><path class="cls-15" d="m178.74,318.1c0,1.29-.42,2.34-1.27,3.15s-1.98,1.21-3.4,1.21h-.3c-.94,0-1.79-.18-2.53-.54-.74-.36-1.32-.86-1.74-1.51s-.63-1.35-.63-2.11c0-1.24.41-2.2,1.22-2.88s1.98-1.03,3.5-1.03h.68v6.44c.94-.02,1.69-.3,2.27-.82.58-.52.87-1.19.87-2,0-.57-.12-1.06-.35-1.46s-.54-.75-.93-1.05l.77-.99c1.22.8,1.84,1.99,1.84,3.59Zm-8.53.2c0,.66.24,1.21.72,1.65s1.15.72,2.01.83v-4.76h-.12c-.83.05-1.47.27-1.92.67s-.68.94-.68,1.62Z"/><path class="cls-15" d="m170.51,307.91c-.04.25-.06.51-.06.8,0,1.07.45,1.79,1.36,2.17h6.75v1.63h-9.51v-1.58l1.1-.03c-.85-.53-1.27-1.29-1.27-2.27,0-.32.04-.56.12-.72h1.51Z"/><path class="cls-15" d="m708.42,253.5c-1.45-.42-2.5-.93-3.16-1.53-.66-.61-.99-1.35-.99-2.25,0-1.01.4-1.84,1.21-2.5.81-.66,1.85-.99,3.14-.99.88,0,1.66.17,2.35.51s1.22.81,1.6,1.41.57,1.25.57,1.96h-1.7c0-.78-.25-1.39-.74-1.83s-1.19-.67-2.08-.67c-.83,0-1.48.18-1.95.55-.47.37-.7.88-.7,1.53,0,.52.22.96.66,1.33s1.2.69,2.26.99c1.06.3,1.9.63,2.5.99.6.36,1.05.78,1.34,1.26s.44,1.05.44,1.7c0,1.04-.4,1.87-1.21,2.49-.81.62-1.89.94-3.24.94-.88,0-1.7-.17-2.46-.51-.76-.34-1.35-.8-1.76-1.38s-.62-1.25-.62-2h1.7c0,.77.29,1.38.86,1.83.57.45,1.33.67,2.29.67.89,0,1.57-.18,2.05-.54s.71-.86.71-1.49-.22-1.11-.66-1.46c-.44-.34-1.24-.68-2.39-1.01Z"/><path class="cls-15" d="m718.88,258.05c.58,0,1.09-.18,1.52-.53s.67-.79.72-1.32h1.54c-.03.54-.22,1.06-.56,1.56s-.81.88-1.38,1.18-1.19.44-1.83.44c-1.29,0-2.33-.43-3.09-1.3-.76-.86-1.15-2.05-1.15-3.55v-.27c0-.93.17-1.75.51-2.47s.83-1.28,1.46-1.68,1.39-.6,2.25-.6c1.07,0,1.95.32,2.66.96s1.08,1.47,1.13,2.49h-1.54c-.05-.62-.28-1.12-.7-1.52-.42-.4-.94-.59-1.55-.59-.83,0-1.47.3-1.92.89s-.68,1.45-.68,2.58v.31c0,1.1.23,1.94.68,2.53s1.1.89,1.93.89Z"/><path class="cls-15" d="m726.12,250.84c.72-.88,1.66-1.33,2.81-1.33,2.01,0,3.02,1.13,3.04,3.4v6.28h-1.63v-6.29c0-.69-.16-1.19-.47-1.52s-.79-.49-1.44-.49c-.53,0-.99.14-1.39.42s-.71.65-.93,1.11v6.78h-1.63v-13.5h1.63v5.14Z"/><path class="cls-15" d="m735.94,249.69l.04,1.05c.7-.82,1.64-1.23,2.82-1.23,1.33,0,2.24.51,2.72,1.53.32-.46.73-.83,1.23-1.11s1.11-.42,1.8-.42c2.09,0,3.15,1.1,3.18,3.31v6.37h-1.63v-6.28c0-.68-.16-1.19-.47-1.53-.31-.34-.83-.5-1.56-.5-.6,0-1.1.18-1.5.54-.4.36-.63.85-.69,1.46v6.31h-1.63v-6.23c0-1.38-.68-2.07-2.03-2.07-1.07,0-1.8.45-2.19,1.36v6.94h-1.63v-9.51h1.54Z"/><path class="cls-15" d="m750.19,247.17c0-.26.08-.49.24-.67s.4-.27.72-.27.56.09.72.27.25.4.25.67-.08.48-.25.66-.4.26-.72.26-.56-.09-.72-.26-.24-.4-.24-.66Zm1.76,12.03h-1.63v-9.51h1.63v9.51Z"/><path class="cls-15" d="m756.76,247.39v2.3h1.78v1.26h-1.78v5.91c0,.38.08.67.24.86s.43.29.81.29c.19,0,.45-.04.77-.11v1.31c-.43.12-.84.17-1.25.17-.73,0-1.27-.22-1.64-.66s-.55-1.06-.55-1.87v-5.9h-1.73v-1.26h1.73v-2.3h1.63Z"/><path class="cls-15" d="m762.64,247.39v2.3h1.78v1.26h-1.78v5.91c0,.38.08.67.24.86s.43.29.81.29c.19,0,.45-.04.77-.11v1.31c-.43.12-.84.17-1.25.17-.73,0-1.27-.22-1.64-.66s-.55-1.06-.55-1.87v-5.9h-1.73v-1.26h1.73v-2.3h1.63Z"/><path class="cls-15" d="m779.51,247.78h-4.11v11.42h-1.68v-11.42h-4.1v-1.38h9.9v1.38Z"/><path class="cls-15" d="m785.09,251.15c-.25-.04-.51-.06-.8-.06-1.07,0-1.79.45-2.17,1.36v6.75h-1.63v-9.51h1.58l.03,1.1c.53-.85,1.29-1.27,2.27-1.27.32,0,.56.04.72.12v1.51Z"/><path class="cls-15" d="m786.6,247.17c0-.26.08-.49.24-.67s.4-.27.72-.27.56.09.72.27.25.4.25.67-.08.48-.25.66-.4.26-.72.26-.56-.09-.72-.26-.24-.4-.24-.66Zm1.76,12.03h-1.63v-9.51h1.63v9.51Z"/><path class="cls-15" d="m790.57,254.37c0-1.48.34-2.66,1.03-3.54s1.59-1.31,2.72-1.31,2.07.41,2.72,1.23l.08-1.05h1.49v9.28c0,1.23-.37,2.2-1.09,2.91s-1.71,1.06-2.94,1.06c-.69,0-1.36-.15-2.01-.44s-1.16-.69-1.5-1.2l.84-.98c.7.86,1.55,1.29,2.56,1.29.79,0,1.41-.22,1.85-.67s.66-1.07.66-1.88v-.82c-.65.75-1.54,1.12-2.66,1.12s-2.01-.45-2.7-1.34-1.03-2.12-1.03-3.67Zm1.63.18c0,1.07.22,1.92.66,2.53.44.61,1.05.92,1.85.92,1.03,0,1.78-.47,2.26-1.4v-4.34c-.5-.91-1.25-1.36-2.24-1.36-.79,0-1.41.31-1.85.92s-.67,1.53-.67,2.73Z"/><path class="cls-15" d="m800.67,254.37c0-1.48.34-2.66,1.03-3.54s1.59-1.31,2.72-1.31,2.07.41,2.72,1.23l.08-1.05h1.49v9.28c0,1.23-.37,2.2-1.09,2.91s-1.71,1.06-2.94,1.06c-.69,0-1.36-.15-2.01-.44s-1.16-.69-1.5-1.2l.84-.98c.7.86,1.55,1.29,2.56,1.29.79,0,1.41-.22,1.85-.67s.66-1.07.66-1.88v-.82c-.65.75-1.54,1.12-2.66,1.12s-2.01-.45-2.7-1.34-1.03-2.12-1.03-3.67Zm1.63.18c0,1.07.22,1.92.66,2.53.44.61,1.05.92,1.85.92,1.03,0,1.78-.47,2.26-1.4v-4.34c-.5-.91-1.25-1.36-2.24-1.36-.79,0-1.41.31-1.85.92s-.67,1.53-.67,2.73Z"/><path class="cls-15" d="m815.1,259.38c-1.29,0-2.34-.42-3.15-1.27s-1.21-1.98-1.21-3.4v-.3c0-.94.18-1.79.54-2.53s.86-1.32,1.51-1.74,1.35-.63,2.11-.63c1.24,0,2.2.41,2.88,1.22s1.03,1.98,1.03,3.5v.68h-6.44c.02.94.3,1.7.82,2.27.52.58,1.19.87,2,.87.57,0,1.06-.12,1.46-.35s.75-.54,1.05-.93l.99.77c-.8,1.22-1.99,1.84-3.59,1.84Zm-.2-8.53c-.66,0-1.21.24-1.65.72s-.72,1.15-.83,2.01h4.76v-.12c-.05-.83-.27-1.47-.67-1.92s-.94-.68-1.62-.68Z"/><path class="cls-15" d="m825.28,251.15c-.25-.04-.51-.06-.8-.06-1.07,0-1.79.45-2.17,1.36v6.75h-1.63v-9.51h1.58l.03,1.1c.53-.85,1.29-1.27,2.27-1.27.32,0,.56.04.72.12v1.51Z"/><path class="cls-15" d="m841.33,253.21c0,1.25-.21,2.35-.63,3.28-.42.94-1.02,1.65-1.79,2.14s-1.68.74-2.71.74-1.9-.25-2.68-.74-1.38-1.2-1.81-2.12c-.43-.92-.65-1.98-.66-3.19v-.92c0-1.23.21-2.32.64-3.26s1.03-1.67,1.81-2.17c.78-.5,1.68-.75,2.69-.75s1.93.25,2.71.74c.78.5,1.38,1.21,1.81,2.15.42.94.63,2.03.63,3.28v.81Zm-1.68-.83c0-1.52-.3-2.68-.91-3.49s-1.46-1.22-2.56-1.22-1.91.41-2.52,1.22c-.61.81-.93,1.94-.94,3.38v.94c0,1.47.31,2.63.93,3.47.62.84,1.47,1.26,2.55,1.26s1.93-.4,2.53-1.19.9-1.93.92-3.42v-.95Z"/><path class="cls-15" d="m849.15,256.68c0-.44-.17-.78-.5-1.02-.33-.24-.91-.45-1.73-.63s-1.48-.39-1.96-.63c-.48-.25-.84-.54-1.07-.88-.23-.34-.35-.74-.35-1.21,0-.78.33-1.44.99-1.98.66-.54,1.5-.81,2.53-.81,1.08,0,1.95.28,2.62.83s1.01,1.27,1.01,2.14h-1.63c0-.45-.19-.83-.57-1.15-.38-.32-.85-.48-1.43-.48s-1.05.13-1.39.39-.5.59-.5,1.01c0,.39.16.69.47.89s.87.39,1.68.57c.81.18,1.47.4,1.97.65s.88.56,1.12.91c.24.36.36.79.36,1.3,0,.85-.34,1.53-1.02,2.04-.68.51-1.56.77-2.65.77-.76,0-1.44-.13-2.02-.4s-1.04-.65-1.38-1.13c-.33-.48-.5-1.01-.5-1.57h1.63c.03.54.25.98.65,1.3.41.32.95.48,1.61.48.62,0,1.11-.12,1.48-.37.37-.25.56-.58.56-1Z"/><path class="cls-15" d="m856.7,258.05c.58,0,1.09-.18,1.52-.53s.67-.79.72-1.32h1.54c-.03.54-.22,1.06-.56,1.56s-.81.88-1.38,1.18-1.19.44-1.83.44c-1.29,0-2.32-.43-3.09-1.3-.76-.86-1.15-2.05-1.15-3.55v-.27c0-.93.17-1.75.51-2.47s.83-1.28,1.46-1.68,1.39-.6,2.25-.6c1.07,0,1.95.32,2.66.96.71.64,1.08,1.47,1.13,2.49h-1.54c-.05-.62-.28-1.12-.7-1.52-.42-.4-.94-.59-1.55-.59-.83,0-1.47.3-1.92.89s-.68,1.45-.68,2.58v.31c0,1.1.23,1.94.68,2.53s1.1.89,1.93.89Z"/><path class="cls-15" d="m862.32,247.17c0-.26.08-.49.24-.67s.4-.27.72-.27.56.09.72.27.25.4.25.67-.08.48-.25.66-.4.26-.72.26-.56-.09-.72-.26-.24-.4-.24-.66Zm1.76,12.03h-1.63v-9.51h1.63v9.51Z"/><path class="cls-15" d="m868.45,259.2h-1.63v-13.5h1.63v13.5Z"/><path class="cls-15" d="m872.82,259.2h-1.63v-13.5h1.63v13.5Z"/><path class="cls-15" d="m881.29,259.2c-.09-.19-.17-.52-.23-1-.76.79-1.66,1.18-2.71,1.18-.94,0-1.71-.26-2.31-.79-.6-.53-.9-1.2-.9-2.02,0-.99.38-1.76,1.13-2.31.75-.55,1.81-.82,3.18-.82h1.58v-.75c0-.57-.17-1.02-.51-1.36-.34-.34-.84-.5-1.5-.5-.58,0-1.07.15-1.46.44s-.59.65-.59,1.06h-1.63c0-.47.17-.93.5-1.38s.79-.79,1.37-1.05,1.21-.39,1.9-.39c1.1,0,1.95.27,2.58.82s.94,1.3.97,2.26v4.38c0,.87.11,1.57.33,2.08v.14h-1.71Zm-2.7-1.24c.51,0,.99-.13,1.45-.4s.79-.61.99-1.03v-1.95h-1.27c-1.99,0-2.99.58-2.99,1.75,0,.51.17.91.51,1.2s.78.43,1.31.43Z"/><path class="cls-15" d="m887.41,247.39v2.3h1.78v1.26h-1.78v5.91c0,.38.08.67.24.86s.43.29.81.29c.19,0,.45-.04.77-.11v1.31c-.43.12-.84.17-1.25.17-.73,0-1.27-.22-1.64-.66s-.55-1.06-.55-1.87v-5.9h-1.73v-1.26h1.73v-2.3h1.63Z"/><path class="cls-15" d="m890.48,254.36c0-.93.18-1.77.55-2.51.37-.74.88-1.32,1.53-1.72.65-.4,1.4-.61,2.24-.61,1.29,0,2.34.45,3.14,1.34.8.9,1.2,2.09,1.2,3.58v.11c0,.93-.18,1.76-.53,2.49-.36.74-.86,1.31-1.52,1.72-.66.41-1.42.62-2.27.62-1.29,0-2.33-.45-3.13-1.34-.8-.9-1.2-2.08-1.2-3.56v-.11Zm1.63.19c0,1.05.24,1.9.73,2.54s1.14.96,1.96.96,1.48-.32,1.97-.97c.49-.65.73-1.55.73-2.72,0-1.04-.25-1.89-.74-2.54-.5-.65-1.15-.97-1.97-.97s-1.45.32-1.94.96-.74,1.55-.74,2.74Z"/><path class="cls-15" d="m905.77,251.15c-.25-.04-.51-.06-.8-.06-1.07,0-1.79.45-2.17,1.36v6.75h-1.63v-9.51h1.58l.03,1.1c.53-.85,1.29-1.27,2.27-1.27.32,0,.56.04.72.12v1.51Z"/><path class="cls-15" d="m776.85,170.89h-5.36l-1.2,3.35h-1.74l4.89-12.8h1.48l4.9,12.8h-1.73l-1.22-3.35Zm-4.85-1.38h4.35l-2.18-5.99-2.17,5.99Z"/><path class="cls-15" d="m782.8,164.73l.04,1.05c.7-.82,1.64-1.23,2.82-1.23,1.33,0,2.24.51,2.72,1.53.32-.46.73-.83,1.24-1.11s1.11-.42,1.8-.42c2.09,0,3.15,1.1,3.18,3.31v6.37h-1.63v-6.28c0-.68-.16-1.19-.47-1.53-.31-.34-.83-.5-1.56-.5-.6,0-1.1.18-1.5.54-.4.36-.63.85-.69,1.46v6.31h-1.63v-6.23c0-1.38-.68-2.07-2.03-2.07-1.07,0-1.8.45-2.19,1.36v6.94h-1.63v-9.51h1.54Z"/><path class="cls-15" d="m805.08,169.59c0,1.45-.33,2.61-.99,3.5s-1.56,1.33-2.69,1.33-2.06-.37-2.72-1.1v4.58h-1.63v-13.17h1.49l.08,1.05c.66-.82,1.58-1.23,2.76-1.23s2.05.43,2.71,1.29,1,2.06,1,3.59v.15Zm-1.63-.18c0-1.07-.23-1.92-.69-2.54s-1.08-.93-1.88-.93c-.98,0-1.72.44-2.21,1.31v4.54c.49.87,1.23,1.3,2.23,1.3.78,0,1.4-.31,1.86-.93s.69-1.54.69-2.76Z"/><path class="cls-15" d="m808.91,174.24h-1.63v-13.5h1.63v13.5Z"/><path class="cls-15" d="m811.53,162.21c0-.26.08-.49.24-.67s.4-.27.72-.27.56.09.72.27.25.4.25.67-.08.48-.25.66-.4.26-.72.26-.55-.09-.72-.26-.24-.4-.24-.66Zm1.76,12.03h-1.63v-9.51h1.63v9.51Z"/><path class="cls-15" d="m816.68,174.24v-8.25h-1.5v-1.26h1.5v-.98c0-1.02.27-1.81.82-2.36s1.32-.83,2.31-.83c.38,0,.75.05,1.12.15l-.09,1.31c-.28-.05-.57-.08-.88-.08-.53,0-.93.15-1.22.46s-.43.75-.43,1.33v1h2.03v1.26h-2.03v8.25h-1.63Z"/><path class="cls-15" d="m822.14,162.21c0-.26.08-.49.24-.67s.4-.27.72-.27.56.09.72.27.25.4.25.67-.08.48-.25.66-.4.26-.72.26-.55-.09-.72-.26-.24-.4-.24-.66Zm1.76,12.03h-1.63v-9.51h1.63v9.51Z"/><path class="cls-15" d="m830.45,174.42c-1.29,0-2.34-.42-3.15-1.27s-1.21-1.98-1.21-3.4v-.3c0-.94.18-1.79.54-2.53s.86-1.32,1.51-1.74,1.35-.63,2.1-.63c1.24,0,2.2.41,2.88,1.22s1.03,1.98,1.03,3.5v.68h-6.44c.02.94.3,1.7.82,2.27.52.58,1.19.87,2,.87.57,0,1.06-.12,1.46-.35s.75-.54,1.05-.93l.99.77c-.8,1.22-1.99,1.84-3.59,1.84Zm-.2-8.53c-.66,0-1.21.24-1.65.72s-.72,1.15-.83,2.01h4.76v-.12c-.05-.83-.27-1.47-.67-1.92s-.94-.68-1.62-.68Z"/><path class="cls-15" d="m840.63,166.19c-.25-.04-.51-.06-.8-.06-1.07,0-1.79.45-2.17,1.36v6.75h-1.63v-9.51h1.58l.03,1.1c.53-.85,1.29-1.27,2.27-1.27.32,0,.56.04.72.12v1.51Z"/><path class="cls-15" d="m756.13,86.46h6.06v1.38h-7.76v-12.8h1.7v11.42Z"/><path class="cls-15" d="m763.43,83c0-.93.18-1.77.55-2.51.37-.74.88-1.32,1.53-1.72.65-.4,1.4-.61,2.24-.61,1.29,0,2.34.45,3.14,1.34.8.9,1.2,2.09,1.2,3.58v.11c0,.93-.18,1.76-.53,2.49-.35.74-.86,1.31-1.52,1.72-.66.41-1.42.62-2.27.62-1.29,0-2.33-.45-3.13-1.34-.8-.9-1.2-2.08-1.2-3.56v-.11Zm1.63.19c0,1.05.24,1.9.73,2.54.49.64,1.14.96,1.96.96s1.48-.32,1.97-.97c.49-.65.73-1.55.73-2.72,0-1.04-.25-1.89-.74-2.54-.5-.65-1.15-.97-1.97-.97s-1.45.32-1.94.96-.74,1.55-.74,2.74Z"/><path class="cls-15" d="m780,86.9c-.63.74-1.56,1.12-2.79,1.12-1.01,0-1.79-.29-2.32-.88-.53-.59-.8-1.46-.8-2.62v-6.19h1.63v6.14c0,1.44.59,2.16,1.76,2.16,1.24,0,2.07-.46,2.48-1.39v-6.92h1.63v9.51h-1.55l-.04-.94Z"/><path class="cls-15" d="m783.65,83.01c0-1.46.35-2.63,1.04-3.52.69-.89,1.6-1.33,2.72-1.33s2,.38,2.65,1.14v-4.96h1.63v13.5h-1.49l-.08-1.02c-.65.8-1.56,1.2-2.72,1.2s-2-.45-2.69-1.35c-.7-.9-1.04-2.08-1.04-3.53v-.12Zm1.63.18c0,1.08.22,1.92.67,2.53s1.06.91,1.85.91c1.03,0,1.78-.46,2.26-1.39v-4.37c-.49-.9-1.23-1.34-2.24-1.34-.8,0-1.42.31-1.86.92s-.67,1.53-.67,2.73Z"/><path class="cls-15" d="m799.74,85.32c0-.44-.17-.78-.5-1.02-.33-.24-.91-.45-1.73-.63-.82-.18-1.48-.39-1.96-.63-.48-.25-.84-.54-1.07-.88-.23-.34-.35-.74-.35-1.21,0-.78.33-1.44.99-1.98.66-.54,1.5-.81,2.53-.81,1.08,0,1.95.28,2.62.83.67.56,1.01,1.27,1.01,2.14h-1.63c0-.45-.19-.83-.57-1.15-.38-.32-.85-.48-1.43-.48s-1.05.13-1.39.39-.5.59-.5,1.01c0,.39.16.69.47.89s.87.39,1.68.57c.81.18,1.47.4,1.97.65s.88.56,1.12.91c.24.36.37.79.37,1.3,0,.85-.34,1.53-1.02,2.04-.68.51-1.56.77-2.65.77-.76,0-1.44-.13-2.02-.4s-1.04-.65-1.38-1.13c-.33-.48-.5-1.01-.5-1.57h1.63c.03.54.25.98.66,1.3.41.32.94.48,1.61.48.62,0,1.11-.12,1.48-.37.37-.25.56-.58.56-1Z"/><path class="cls-15" d="m811.52,83.19c0,1.45-.33,2.61-.99,3.5s-1.56,1.33-2.69,1.33-2.06-.37-2.72-1.1v4.58h-1.63v-13.17h1.49l.08,1.05c.66-.82,1.58-1.23,2.76-1.23s2.05.43,2.71,1.29c.66.86,1,2.06,1,3.59v.15Zm-1.63-.18c0-1.07-.23-1.92-.69-2.54s-1.08-.93-1.88-.93c-.98,0-1.72.44-2.21,1.31v4.54c.49.87,1.23,1.3,2.23,1.3.78,0,1.4-.31,1.86-.93.46-.62.69-1.54.69-2.76Z"/><path class="cls-15" d="m817.53,88.02c-1.29,0-2.34-.42-3.15-1.27s-1.21-1.98-1.21-3.4v-.3c0-.94.18-1.79.54-2.53.36-.74.87-1.32,1.51-1.74.65-.42,1.35-.63,2.11-.63,1.24,0,2.2.41,2.88,1.22s1.03,1.98,1.03,3.5v.68h-6.44c.02.94.3,1.7.82,2.27.52.58,1.19.87,2,.87.57,0,1.06-.12,1.46-.35s.75-.54,1.05-.93l.99.77c-.8,1.22-1.99,1.84-3.59,1.84Zm-.2-8.53c-.66,0-1.21.24-1.65.72s-.72,1.15-.83,2.01h4.76v-.12c-.05-.83-.27-1.47-.67-1.92s-.94-.68-1.62-.68Z"/><path class="cls-15" d="m828.99,87.84c-.09-.19-.17-.52-.23-1-.76.79-1.66,1.18-2.71,1.18-.94,0-1.71-.26-2.31-.79-.6-.53-.9-1.2-.9-2.02,0-.99.38-1.76,1.13-2.31.75-.55,1.81-.82,3.18-.82h1.58v-.75c0-.57-.17-1.02-.51-1.36-.34-.34-.84-.5-1.5-.5-.58,0-1.07.15-1.46.44s-.59.65-.59,1.06h-1.63c0-.47.17-.93.51-1.38.34-.44.79-.79,1.37-1.05.58-.26,1.21-.39,1.9-.39,1.1,0,1.95.27,2.58.82s.94,1.3.97,2.26v4.38c0,.87.11,1.57.33,2.08v.14h-1.71Zm-2.7-1.24c.51,0,.99-.13,1.45-.4s.79-.61.99-1.03v-1.95h-1.27c-1.99,0-2.99.58-2.99,1.75,0,.51.17.91.51,1.2s.78.43,1.31.43Z"/><path class="cls-15" d="m835.56,83.44l-1.02,1.06v3.34h-1.63v-13.5h1.63v8.17l.87-1.05,2.96-3.13h1.98l-3.7,3.97,4.13,5.54h-1.91l-3.31-4.4Z"/><path class="cls-15" d="m845.8,88.02c-1.29,0-2.34-.42-3.15-1.27s-1.21-1.98-1.21-3.4v-.3c0-.94.18-1.79.54-2.53.36-.74.86-1.32,1.51-1.74s1.35-.63,2.11-.63c1.24,0,2.2.41,2.88,1.22s1.03,1.98,1.03,3.5v.68h-6.44c.02.94.3,1.7.82,2.27.52.58,1.19.87,2,.87.57,0,1.06-.12,1.46-.35s.75-.54,1.05-.93l.99.77c-.8,1.22-1.99,1.84-3.59,1.84Zm-.2-8.53c-.66,0-1.21.24-1.65.72s-.72,1.15-.83,2.01h4.76v-.12c-.05-.83-.27-1.47-.67-1.92s-.94-.68-1.62-.68Z"/><path class="cls-15" d="m855.99,79.79c-.25-.04-.51-.06-.8-.06-1.07,0-1.79.45-2.17,1.36v6.75h-1.63v-9.51h1.58l.03,1.1c.53-.85,1.29-1.27,2.27-1.27.32,0,.56.04.72.12v1.51Z"/><path class="cls-15" d="m396.89,567.36v-12.8h3.61c1.11,0,2.1.25,2.95.74s1.52,1.19,1.98,2.1.7,1.95.71,3.13v.82c0,1.21-.23,2.26-.7,3.17s-1.13,1.61-2,2.09-1.87.74-3.02.75h-3.54Zm1.69-11.42v10.04h1.78c1.3,0,2.31-.41,3.04-1.21.72-.81,1.09-1.96,1.09-3.46v-.75c0-1.45-.34-2.58-1.02-3.39-.68-.81-1.65-1.21-2.9-1.23h-1.97Z"/><path class="cls-15" d="m418.1,563.3c-.16,1.35-.66,2.4-1.5,3.13s-1.96,1.1-3.35,1.1c-1.51,0-2.72-.54-3.63-1.63s-1.37-2.53-1.37-4.35v-1.23c0-1.19.21-2.24.64-3.14s1.03-1.6,1.81-2.08,1.68-.72,2.71-.72c1.36,0,2.45.38,3.27,1.14s1.3,1.81,1.43,3.15h-1.7c-.15-1.02-.46-1.76-.95-2.22-.49-.46-1.17-.69-2.05-.69-1.08,0-1.92.4-2.54,1.2s-.92,1.93-.92,3.4v1.24c0,1.39.29,2.5.87,3.32.58.82,1.39,1.23,2.43,1.23.94,0,1.66-.21,2.16-.64s.83-1.16,1-2.22h1.7Z"/><path class="cls-15" d="m478.91,564.01h-5.36l-1.2,3.35h-1.74l4.89-12.8h1.48l4.9,12.8h-1.73l-1.22-3.35Zm-4.85-1.38h4.35l-2.18-5.99-2.17,5.99Z"/><path class="cls-15" d="m492.9,563.3c-.16,1.35-.66,2.4-1.5,3.13-.84.74-1.96,1.1-3.35,1.1-1.51,0-2.72-.54-3.63-1.63s-1.37-2.53-1.37-4.35v-1.23c0-1.19.21-2.24.64-3.14.42-.9,1.03-1.59,1.81-2.08.78-.48,1.68-.72,2.71-.72,1.36,0,2.45.38,3.27,1.14s1.3,1.81,1.43,3.15h-1.7c-.15-1.02-.46-1.76-.95-2.22-.49-.46-1.17-.69-2.05-.69-1.08,0-1.92.4-2.54,1.2s-.92,1.93-.92,3.4v1.24c0,1.39.29,2.5.87,3.32s1.39,1.23,2.43,1.23c.94,0,1.66-.21,2.16-.64.5-.42.83-1.16,1-2.22h1.7Z"/><path class="cls-15" d="m370.61,254.65v-12.8h3.61c1.11,0,2.1.25,2.95.74s1.52,1.19,1.98,2.1.7,1.95.71,3.13v.82c0,1.21-.23,2.26-.7,3.17s-1.13,1.61-2,2.09-1.87.74-3.02.75h-3.54Zm1.69-11.42v10.04h1.78c1.3,0,2.31-.4,3.04-1.21s1.09-1.96,1.09-3.46v-.75c0-1.45-.34-2.58-1.02-3.39-.68-.81-1.65-1.22-2.9-1.23h-1.97Z"/><path class="cls-15" d="m391.83,250.59c-.16,1.35-.66,2.4-1.5,3.13s-1.96,1.1-3.35,1.1c-1.51,0-2.72-.54-3.63-1.63s-1.37-2.53-1.37-4.35v-1.23c0-1.19.21-2.24.64-3.14s1.03-1.6,1.81-2.08,1.68-.73,2.71-.73c1.36,0,2.45.38,3.27,1.14s1.3,1.81,1.43,3.15h-1.7c-.15-1.02-.46-1.76-.95-2.22s-1.17-.69-2.05-.69c-1.08,0-1.92.4-2.54,1.2-.61.8-.92,1.93-.92,3.4v1.24c0,1.39.29,2.5.87,3.32s1.39,1.23,2.43,1.23c.94,0,1.66-.21,2.16-.64s.83-1.16,1-2.22h1.7Z"/><path class="cls-15" d="m441.83,251.53h-5.36l-1.2,3.35h-1.74l4.89-12.8h1.48l4.9,12.8h-1.73l-1.22-3.35Zm-4.85-1.38h4.35l-2.18-5.99-2.17,5.99Z"/><path class="cls-15" d="m455.82,250.82c-.16,1.35-.66,2.4-1.5,3.13s-1.96,1.1-3.35,1.1c-1.51,0-2.72-.54-3.63-1.63s-1.37-2.53-1.37-4.35v-1.23c0-1.19.21-2.24.64-3.14s1.03-1.6,1.81-2.08,1.68-.73,2.71-.73c1.36,0,2.45.38,3.27,1.14s1.3,1.81,1.43,3.15h-1.7c-.15-1.02-.46-1.76-.95-2.22s-1.17-.69-2.05-.69c-1.08,0-1.92.4-2.54,1.2-.61.8-.92,1.93-.92,3.4v1.24c0,1.39.29,2.5.87,3.32s1.39,1.23,2.43,1.23c.94,0,1.66-.21,2.16-.64s.83-1.16,1-2.22h1.7Z"/><line class="cls-9" x1="383.88" y1="180.35" x2="385.33" y2="165.82"/><line class="cls-9" x1="380.97" y1="180.35" x2="387.76" y2="180.35"/><line class="cls-9" x1="385.33" y1="165.82" x2="392.12" y2="165.82"/><line class="cls-9" x1="387.76" y1="180.35" x2="389.21" y2="165.82"/><circle class="cls-9" cx="417.6" cy="172.8" r="2.88"/><line class="cls-9" x1="371.52" y1="172.8" x2="364.32" y2="172.8"/><polygon class="cls-9" points="414.72 172.8 393.12 183.6 371.52 194.4 371.52 172.8 371.52 151.2 393.12 162 414.72 172.8"/><polygon class="cls-2" points="515.52 172.8 493.92 183.6 472.32 194.4 472.32 172.8 472.32 151.2 493.92 162 515.52 172.8"/><line class="cls-9" x1="427.68" y1="172.8" x2="420.48" y2="172.8"/><line class="cls-6" x1="804.6" y1="379.74" x2="804.6" y2="482.4"/><path class="cls-15" d="m800.52,385.55c.2.13.46.07.59-.13l3.49-5.49,3.49,5.49c.13.2.39.26.59.13.2-.13.25-.39.13-.59l-3.85-6.05c-.08-.12-.21-.2-.36-.2s-.28.07-.36.2l-3.85,6.05c-.04.07-.07.15-.07.23,0,.14.07.28.2.36Z"/><line class="cls-9" x1="194.4" y1="283.92" x2="194.4" y2="288.89"/><line class="cls-12" x1="194.4" y1="295.28" x2="194.4" y2="324.04"/><line class="cls-5" x1="194.4" y1="327.23" x2="194.4" y2="515.75"/><line class="cls-9" x1="194.4" y1="518.95" x2="194.4" y2="523.92"/><polygon class="cls-15" points="194.4 277.92 190.94 286.38 194.4 284.37 197.86 286.38 194.4 277.92"/><polygon class="cls-15" points="194.4 529.92 190.94 521.46 194.4 523.47 197.86 521.46 194.4 529.92"/><line class="cls-6" x1="457.98" y1="561.6" x2="430.2" y2="561.6"/><path class="cls-15" d="m452.16,557.52c-.13.2-.07.46.13.59l5.49,3.49-5.49,3.49c-.2.13-.26.39-.13.59.13.2.39.25.59.13l6.05-3.85c.12-.08.2-.21.2-.36s-.07-.28-.2-.36l-6.05-3.85c-.07-.04-.15-.07-.23-.07-.14,0-.28.07-.36.2Z"/><line class="cls-6" x1="399.9" y1="247.68" x2="427.68" y2="247.68"/><path class="cls-15" d="m405.71,251.76c.13-.2.07-.46-.13-.59l-5.49-3.49,5.49-3.49c.2-.13.26-.39.13-.59s-.39-.25-.59-.13l-6.05,3.85c-.12.08-.2.21-.2.36s.07.28.2.36l6.05,3.85c.07.04.15.07.23.07.14,0,.28-.07.36-.2Z"/><line class="cls-6" x1="381.6" y1="206.77" x2="381.6" y2="234.72"/><path class="cls-15" d="m378.2,211.62c.16.11.38.06.49-.11l2.91-4.57,2.91,4.57c.11.17.32.21.49.11.16-.11.21-.33.11-.49l-3.21-5.04c-.07-.1-.18-.16-.3-.16s-.23.06-.3.16l-3.21,5.04c-.04.06-.06.13-.06.19,0,.12.06.23.16.3Z"/><line class="cls-6" x1="461.22" y1="172.8" x2="433.44" y2="172.8"/><path class="cls-15" d="m455.41,168.72c-.13.2-.07.46.13.59l5.49,3.49-5.49,3.49c-.2.13-.26.39-.13.59.13.2.39.25.59.13l6.05-3.85c.12-.08.2-.21.2-.36s-.07-.28-.2-.36l-6.05-3.85c-.07-.04-.15-.07-.23-.07-.14,0-.28.07-.36.2Z"/><line class="cls-6" x1="804.6" y1="271.74" x2="804.6" y2="324"/><path class="cls-15" d="m800.52,277.55c.2.13.46.07.59-.13l3.49-5.49,3.49,5.49c.13.2.39.26.59.13.2-.13.25-.39.13-.59l-3.85-6.05c-.08-.12-.21-.2-.36-.2s-.28.07-.36.2l-3.85,6.05c-.04.07-.07.15-.07.23,0,.14.07.28.2.36Z"/><line class="cls-6" x1="804.6" y1="186.78" x2="804.6" y2="239.04"/><path class="cls-15" d="m800.52,192.59c.2.13.46.07.59-.13l3.49-5.49,3.49,5.49c.13.2.39.26.59.13.2-.13.25-.39.13-.59l-3.85-6.05c-.08-.12-.21-.2-.36-.2s-.28.07-.36.2l-3.85,6.05c-.04.07-.07.15-.07.23,0,.14.07.28.2.36Z"/><line class="cls-6" x1="804.6" y1="100.38" x2="804.6" y2="152.64"/><path class="cls-15" d="m800.52,106.19c.2.13.46.07.59-.13l3.49-5.49,3.49,5.49c.13.2.39.26.59.13.2-.13.25-.39.13-.59l-3.85-6.05c-.08-.12-.21-.2-.36-.2s-.28.07-.36.2l-3.85,6.05c-.04.07-.07.15-.07.23,0,.14.07.28.2.36Z"/></g></svg>