<?xml version="1.0" encoding="UTF-8"?><svg id="Ebene_1" xmlns="http://www.w3.org/2000/svg" xmlns:xlink="http://www.w3.org/1999/xlink" viewBox="0 0 633.6 403.2"><defs><style>.cls-1{letter-spacing:-.01em;}.cls-2{letter-spacing:-.04em;}.cls-3{letter-spacing:0em;}.cls-4,.cls-5{fill:#F0F6FC;}.cls-6{letter-spacing:-.01em;}.cls-7{letter-spacing:.02em;}.cls-8{letter-spacing:0em;}.cls-9{letter-spacing:.01em;}.cls-10{stroke-width:.71px;}.cls-10,.cls-11{fill:none;stroke:#F0F6FC;stroke-miterlimit:10;}.cls-12{letter-spacing:0em;}.cls-13{letter-spacing:0em;}.cls-14{letter-spacing:0em;}.cls-15{letter-spacing:0em;}.cls-16{letter-spacing:0em;}.cls-11{stroke-width:.66px;}.cls-5{font-family:MyriadPro-Regular, 'Myriad Pro';font-size:14px;}.cls-17{letter-spacing:0em;}.cls-18{letter-spacing:-.03em;}</style></defs><text class="cls-5" transform="translate(56.99 21.6)"><tspan class="cls-2" x="0" y="0">T</tspan><tspan class="cls-16" x="6.4" y="0">w</tspan><tspan class="cls-12" x="16.56" y="0">o individually gene</tspan><tspan class="cls-15" x="127.59" y="0">r</tspan><tspan class="cls-17" x="132.1" y="0">a</tspan><tspan class="cls-8" x="138.79" y="0">t</tspan><tspan class="cls-13" x="143.34" y="0">ed </tspan><tspan class="cls-18" x="161.22" y="0">F</tspan><tspan class="cls-16" x="167.68" y="0">r</tspan><tspan x="172.11" y="0">equencies</tspan></text><text class="cls-5" transform="translate(369 21.6)"><tspan class="cls-3" x="0" y="0">C</tspan><tspan class="cls-1" x="8.08" y="0">r</tspan><tspan x="12.52" y="0">oss-modul</tspan><tspan class="cls-17" x="73.86" y="0">a</tspan><tspan x="80.56" y="0">tion be</tspan><tspan class="cls-14" x="121.87" y="0">t</tspan><tspan class="cls-16" x="126.63" y="0">w</tspan><tspan x="136.79" y="0">een modules</tspan></text><text class="cls-5" transform="translate(28.8 151.8) rotate(-90)"><tspan class="cls-18" x="0" y="0">F</tspan><tspan class="cls-16" x="6.45" y="0">r</tspan><tspan x="10.89" y="0">equen</tspan><tspan class="cls-7" x="48.29" y="0">c</tspan><tspan x="54.81" y="0">y (</tspan><tspan class="cls-9" x="68.35" y="0">H</tspan><tspan x="77.63" y="0">z)</tspan></text><text class="cls-5" transform="translate(150.19 388.8)"><tspan class="cls-6" x="0" y="0">T</tspan><tspan x="6.79" y="0">ime (s)</tspan></text><image width="1080" height="600" transform="translate(43.2 36) scale(.24)" xlink:href="../Scientific_Poster_NIME21/Materials/Graphics/B.jpg"/><rect class="cls-11" x="43.2" y="36" width="259.2" height="144"/><image width="1080" height="600" transform="translate(43.18 223.2) scale(.24)" xlink:href="../Scientific_Poster_NIME21/Materials/Graphics/A.jpg"/><rect class="cls-11" x="43.2" y="223.2" width="259.2" height="144"/><image width="1080" height="600" transform="translate(345.6 36) scale(.24)" xlink:href="../Scientific_Poster_NIME21/Materials/Graphics/AB.jpg"/><rect class="cls-11" x="345.6" y="36" width="259.2" height="144"/><image width="1080" height="600" transform="translate(345.6 223.2) scale(.24)" xlink:href="../Scientific_Poster_NIME21/Materials/Graphics/BA.jpg"/><rect class="cls-11" x="345.6" y="223.2" width="259.2" height="144"/><text class="cls-5" transform="translate(452.59 388.8)"><tspan class="cls-6" x="0" y="0">T</tspan><tspan x="6.79" y="0">ime (s)</tspan></text><text class="cls-5" transform="translate(28.8 339) rotate(-90)"><tspan class="cls-18" x="0" y="0">F</tspan><tspan class="cls-16" x="6.45" y="0">r</tspan><tspan x="10.89" y="0">equen</tspan><tspan class="cls-7" x="48.29" y="0">c</tspan><tspan x="54.81" y="0">y (</tspan><tspan class="cls-9" x="68.35" y="0">H</tspan><tspan x="77.63" y="0">z)</tspan></text><line class="cls-10" x1="337.55" y1="115.2" x2="309.6" y2="115.2"/><path class="cls-4" d="m332.7,111.8c-.11.16-.06.38.11.49l4.57,2.91-4.57,2.91c-.17.11-.21.32-.11.49s.33.21.49.11l5.04-3.21c.1-.07.16-.18.16-.3s-.06-.23-.16-.3l-5.04-3.21c-.06-.04-.13-.06-.19-.06-.12,0-.23.06-.3.16Z"/><line class="cls-10" x1="337.55" y1="295.2" x2="309.6" y2="295.2"/><path class="cls-4" d="m332.7,291.8c-.11.16-.06.38.11.49l4.57,2.91-4.57,2.91c-.17.11-.21.32-.11.49.11.16.33.21.49.11l5.04-3.21c.1-.07.16-.18.16-.3s-.06-.23-.16-.3l-5.04-3.21c-.06-.04-.13-.06-.19-.06-.12,0-.23.06-.3.16Z"/><line class="cls-10" x1="410.4" y1="188.05" x2="410.4" y2="216"/><path class="cls-4" d="m407,192.9c.16.11.38.06.49-.11l2.91-4.57,2.91,4.57c.11.17.32.21.49.11.16-.11.21-.33.11-.49l-3.21-5.04c-.07-.1-.18-.16-.3-.16s-.23.06-.3.16l-3.21,5.04c-.04.06-.06.13-.06.19,0,.12.06.23.16.3Z"/><line class="cls-10" x1="475.2" y1="215.15" x2="475.2" y2="187.2"/><path class="cls-4" d="m478.6,210.3c-.16-.11-.38-.06-.49.11l-2.91,4.57-2.91-4.57c-.11-.17-.32-.21-.49-.11-.16.11-.21.33-.11.49l3.21,5.04c.07.1.18.16.3.16s.23-.06.3-.16l3.21-5.04c.04-.06.06-.13.06-.19,0-.12-.06-.23-.16-.3Z"/><line class="cls-10" x1="540" y1="188.05" x2="540" y2="216"/><path class="cls-4" d="m536.6,192.9c.16.11.38.06.49-.11l2.91-4.57,2.91,4.57c.11.17.32.21.49.11.16-.11.21-.33.11-.49l-3.21-5.04c-.07-.1-.18-.16-.3-.16s-.23.06-.3.16l-3.21,5.04c-.04.06-.06.13-.06.19,0,.12.06.23.16.3Z"/></svg>